<svg width="160" height="24" viewBox="0 0 160 24" fill="none" xmlns="http://www.w3.org/2000/svg">
<path d="M47.4016 11.2712C47.4121 10.4589 47.6278 9.66241 48.0288 8.95587C48.4298 8.24933 49.0031 7.65571 49.6951 7.23022C49.2555 6.60232 48.6755 6.08558 48.0012 5.72104C47.3269 5.35651 46.5769 5.15422 45.8107 5.13025C44.1764 4.95869 42.592 6.10821 41.7591 6.10821C40.9102 6.10821 39.6279 5.14728 38.2471 5.17569C37.354 5.20454 36.4836 5.46426 35.7206 5.92953C34.9577 6.39481 34.3283 7.04977 33.8938 7.83061C32.0116 11.0895 33.4156 15.8789 35.2186 18.5132C36.1207 19.8031 37.175 21.2439 38.5546 21.1929C39.9045 21.1369 40.4087 20.332 42.0383 20.332C43.6527 20.332 44.1257 21.1929 45.5332 21.1604C46.9818 21.1369 47.8945 19.8647 48.765 18.5626C49.4131 17.6435 49.9119 16.6277 50.2428 15.5528C49.4012 15.1968 48.683 14.601 48.1778 13.8397C47.6725 13.0783 47.4026 12.185 47.4016 11.2712Z" fill="black"/>
<path d="M44.743 3.39728C45.5329 2.44913 45.922 1.23043 45.8278 0C44.6211 0.126737 43.5065 0.703449 42.706 1.61523C42.3146 2.06065 42.0148 2.57885 41.8238 3.1402C41.6328 3.70155 41.5543 4.29503 41.5928 4.88673C42.1964 4.89294 42.7935 4.76212 43.3392 4.50413C43.8848 4.24613 44.3648 3.86768 44.743 3.39728V3.39728Z" fill="black"/>
<path d="M63.603 18.0557H59.1729L58.109 21.1971H56.2326L60.4287 9.57483H62.3782L66.5743 21.1971H64.6659L63.603 18.0557ZM59.6317 16.6061H63.1433L61.4122 11.5079H61.3637L59.6317 16.6061Z" fill="black"/>
<path d="M75.6364 16.9605C75.6364 19.5937 74.227 21.2855 72.1002 21.2855C71.5614 21.3137 71.0256 21.1895 70.5541 20.9274C70.0826 20.6652 69.6944 20.2755 69.4341 19.803H69.3939V24H67.6545V12.7233H69.3381V14.1326H69.3701C69.6424 13.6624 70.0371 13.2747 70.5122 13.0109C70.9873 12.7472 71.525 12.6171 72.0682 12.6346C74.2188 12.6346 75.6364 14.3346 75.6364 16.9605ZM73.8486 16.9605C73.8486 15.245 72.9621 14.1171 71.6094 14.1171C70.2804 14.1171 69.3866 15.2687 69.3866 16.9605C69.3866 18.6678 70.2804 19.8112 71.6094 19.8112C72.9621 19.8112 73.8486 18.6916 73.8486 16.9605H73.8486Z" fill="black"/>
<path d="M84.9631 16.9605C84.9631 19.5937 83.5533 21.2855 81.4265 21.2855C80.8877 21.3137 80.3519 21.1895 79.8804 20.9274C79.4089 20.6652 79.0207 20.2755 78.7604 19.803H78.7201V24H76.9808V12.7233H78.6644V14.1326H78.6964C78.9687 13.6624 79.3634 13.2747 79.8385 13.0109C80.3136 12.7472 80.8513 12.6171 81.3945 12.6346C83.5451 12.6346 84.9631 14.3346 84.9631 16.9605ZM83.1749 16.9605C83.1749 15.245 82.2884 14.1171 80.9357 14.1171C79.6067 14.1171 78.7129 15.2687 78.7129 16.9605C78.7129 18.6678 79.6067 19.8112 80.9357 19.8112C82.2884 19.8112 83.1749 18.6916 83.1749 16.9605V16.9605Z" fill="black"/>
<path d="M91.1262 17.9589C91.2551 19.1114 92.3747 19.8682 93.9047 19.8682C95.3707 19.8682 96.4255 19.1114 96.4255 18.0722C96.4255 17.1701 95.7893 16.6299 94.2831 16.2597L92.7768 15.8969C90.6427 15.3814 89.6519 14.3833 89.6519 12.7638C89.6519 10.7585 91.3995 9.3811 93.88 9.3811C96.3368 9.3811 98.0204 10.7585 98.077 12.7638H96.3213C96.2162 11.6039 95.2574 10.9038 93.8562 10.9038C92.4551 10.9038 91.4963 11.6121 91.4963 12.6431C91.4963 13.4648 92.1087 13.9483 93.6067 14.3184L94.8872 14.6328C97.2718 15.1968 98.2616 16.1546 98.2616 17.8546C98.2616 20.029 96.5305 21.3908 93.7758 21.3908C91.1983 21.3908 89.4581 20.061 89.3457 17.9588L91.1262 17.9589Z" fill="black"/>
<path d="M102.017 10.7192V12.7245H103.629V14.1019H102.017V18.7733C102.017 19.499 102.34 19.8371 103.048 19.8371C103.24 19.8338 103.43 19.8204 103.62 19.7969V21.166C103.302 21.2255 102.978 21.2525 102.654 21.2465C100.939 21.2465 100.27 20.6021 100.27 18.9588V14.1019H99.0377V12.7245H100.27V10.7192H102.017Z" fill="black"/>
<path d="M104.561 16.9617C104.561 14.2956 106.131 12.6202 108.58 12.6202C111.036 12.6202 112.599 14.2955 112.599 16.9617C112.599 19.6351 111.045 21.3031 108.58 21.3031C106.116 21.3031 104.561 19.6351 104.561 16.9617ZM110.827 16.9617C110.827 15.1328 109.989 14.0534 108.58 14.0534C107.17 14.0534 106.332 15.141 106.332 16.9617C106.332 18.7978 107.17 19.869 108.58 19.869C109.989 19.869 110.827 18.7978 110.827 16.9617H110.827Z" fill="black"/>
<path d="M114.033 12.7232H115.692V14.1654H115.732C115.845 13.715 116.109 13.3169 116.48 13.0381C116.851 12.7593 117.307 12.6168 117.771 12.6345C117.971 12.6338 118.171 12.6556 118.367 12.6994V14.3263C118.114 14.249 117.85 14.2135 117.585 14.2212C117.332 14.211 117.08 14.2555 116.847 14.3518C116.613 14.4481 116.403 14.5939 116.23 14.7791C116.058 14.9643 115.928 15.1845 115.849 15.4248C115.77 15.665 115.744 15.9195 115.773 16.1707V21.1967H114.033L114.033 12.7232Z" fill="black"/>
<path d="M126.386 18.7092C126.152 20.2474 124.654 21.3031 122.737 21.3031C120.272 21.3031 118.742 19.6515 118.742 17.0019C118.742 14.344 120.28 12.6202 122.664 12.6202C125.008 12.6202 126.483 14.2307 126.483 16.7999V17.3958H120.498V17.5009C120.47 17.8128 120.509 18.1269 120.612 18.4225C120.716 18.7181 120.88 18.9884 121.096 19.2154C121.312 19.4424 121.573 19.6209 121.863 19.7391C122.153 19.8574 122.465 19.9125 122.777 19.901C123.188 19.9395 123.601 19.8443 123.953 19.6296C124.306 19.4149 124.58 19.0921 124.734 18.7092L126.386 18.7092ZM120.506 16.1802H124.742C124.758 15.8998 124.716 15.6192 124.618 15.356C124.52 15.0928 124.368 14.8527 124.173 14.6508C123.978 14.4489 123.743 14.2894 123.484 14.1825C123.224 14.0756 122.945 14.0236 122.664 14.0296C122.381 14.0279 122.1 14.0823 121.838 14.1897C121.576 14.2971 121.338 14.4553 121.137 14.6553C120.936 14.8552 120.777 15.0929 120.669 15.3547C120.561 15.6164 120.505 15.897 120.506 16.1802V16.1802Z" fill="black"/>
<path d="M59.4089 0.827138C59.7735 0.80097 60.1394 0.856058 60.4802 0.988428C60.821 1.1208 61.1282 1.32715 61.3795 1.5926C61.6309 1.85805 61.8202 2.17598 61.9338 2.52346C62.0475 2.87094 62.0826 3.2393 62.0366 3.60199C62.0366 5.38608 61.0723 6.41161 59.4089 6.41161H57.3917V0.827138H59.4089ZM58.2591 5.62185H59.312C59.5726 5.63742 59.8333 5.5947 60.0753 5.49679C60.3173 5.39888 60.5344 5.24824 60.7108 5.05585C60.8872 4.86346 61.0185 4.63415 61.0951 4.38462C61.1717 4.13509 61.1917 3.87161 61.1537 3.61337C61.189 3.35614 61.1669 3.0943 61.0891 2.8466C61.0113 2.59889 60.8797 2.37146 60.7037 2.1806C60.5277 1.98974 60.3116 1.84017 60.071 1.74261C59.8304 1.64506 59.5712 1.60193 59.312 1.61631H58.2591V5.62185Z" fill="black"/>
<path d="M63.0164 4.30324C62.9899 4.02628 63.0215 3.74685 63.1094 3.48285C63.1972 3.21886 63.3392 2.97614 63.5264 2.77025C63.7135 2.56436 63.9416 2.39986 64.196 2.28729C64.4504 2.17473 64.7256 2.11658 65.0038 2.11658C65.282 2.11658 65.5572 2.17473 65.8116 2.28729C66.066 2.39986 66.2941 2.56436 66.4813 2.77025C66.6684 2.97614 66.8104 3.21886 66.8983 3.48285C66.9861 3.74685 67.0178 4.02628 66.9913 4.30324C67.0183 4.58048 66.987 4.8603 66.8994 5.12472C66.8118 5.38914 66.6698 5.63231 66.4826 5.8386C66.2955 6.04489 66.0672 6.20974 65.8125 6.32255C65.5578 6.43536 65.2824 6.49364 65.0038 6.49364C64.7253 6.49364 64.4498 6.43536 64.1951 6.32255C63.9404 6.20974 63.7122 6.04489 63.525 5.8386C63.3378 5.63231 63.1959 5.38914 63.1083 5.12472C63.0207 4.8603 62.9894 4.58048 63.0164 4.30324ZM66.1358 4.30324C66.1358 3.38971 65.7254 2.85549 65.0052 2.85549C64.2822 2.85549 63.8755 3.38972 63.8755 4.30325C63.8755 5.22409 64.2823 5.75419 65.0052 5.75419C65.7254 5.75418 66.1358 5.22042 66.1358 4.30324H66.1358Z" fill="black"/>
<path d="M72.275 6.41164H71.4122L70.5412 3.30775H70.4754L69.608 6.41164H68.7535L67.5918 2.19727H68.4354L69.1904 5.41308H69.2525L70.119 2.19727H70.9169L71.7833 5.41308H71.8491L72.6004 2.19727H73.4321L72.275 6.41164Z" fill="black"/>
<path d="M74.4092 2.19695H75.2098V2.86644H75.272C75.3774 2.62598 75.5552 2.42441 75.7807 2.28982C76.0061 2.15523 76.2679 2.09433 76.5296 2.1156C76.7347 2.10018 76.9406 2.1311 77.1321 2.20606C77.3236 2.28103 77.4957 2.39811 77.6358 2.54865C77.7759 2.69919 77.8803 2.87931 77.9414 3.07569C78.0024 3.27206 78.0184 3.47965 77.9883 3.68307V6.41128H77.1566V3.89194C77.1566 3.21468 76.8623 2.87787 76.2472 2.87787C76.108 2.87138 75.969 2.89508 75.8398 2.94733C75.7106 2.99958 75.5942 3.07916 75.4986 3.1806C75.403 3.28204 75.3305 3.40294 75.286 3.53503C75.2416 3.66712 75.2262 3.80726 75.2409 3.94585V6.41132H74.4092L74.4092 2.19695Z" fill="black"/>
<path d="M79.3136 0.552002H80.1453V6.41154H79.3136V0.552002Z" fill="black"/>
<path d="M81.3016 4.30185C81.2751 4.02488 81.3068 3.74543 81.3946 3.48142C81.4825 3.21742 81.6245 2.97469 81.8117 2.7688C81.9988 2.56291 82.2269 2.3984 82.4814 2.28583C82.7358 2.17326 83.011 2.11511 83.2892 2.11511C83.5675 2.11511 83.8426 2.17326 84.0971 2.28583C84.3515 2.3984 84.5796 2.56291 84.7668 2.7688C84.9539 2.97469 85.096 3.21742 85.1838 3.48142C85.2717 3.74543 85.3034 4.02488 85.2769 4.30185C85.3039 4.5791 85.2725 4.85893 85.1849 5.12335C85.0973 5.38776 84.9553 5.63093 84.7681 5.83721C84.5809 6.0435 84.3527 6.20834 84.098 6.32114C83.8433 6.43395 83.5678 6.49222 83.2892 6.49222C83.0107 6.49222 82.7352 6.43395 82.4805 6.32114C82.2258 6.20834 81.9975 6.0435 81.8103 5.83721C81.6231 5.63093 81.4812 5.38776 81.3935 5.12335C81.3059 4.85893 81.2746 4.5791 81.3016 4.30185ZM84.421 4.30185C84.421 3.38833 84.0106 2.85411 83.2904 2.85411C82.5674 2.85411 82.1607 3.38833 82.1607 4.30186C82.1607 5.2227 82.5674 5.7528 83.2904 5.7528C84.0106 5.7528 84.421 5.21903 84.421 4.30185H84.421Z" fill="black"/>
<path d="M86.1525 5.22046C86.1525 4.46185 86.7173 4.02451 87.7199 3.96236L88.8615 3.89655V3.53279C88.8615 3.08768 88.5672 2.83634 87.9987 2.83634C87.5344 2.83634 87.2127 3.0068 87.1204 3.30475H86.3152C86.4002 2.58088 87.0811 2.11658 88.0371 2.11658C89.0937 2.11658 89.6896 2.64256 89.6896 3.53279V6.41229H88.8889V5.82004H88.8231C88.6896 6.03248 88.502 6.20567 88.2796 6.32192C88.0572 6.43817 87.8079 6.49332 87.5573 6.48173C87.3803 6.50013 87.2015 6.48126 87.0323 6.42632C86.8632 6.37138 86.7074 6.2816 86.575 6.16277C86.4427 6.04394 86.3367 5.89869 86.2639 5.73639C86.1911 5.57408 86.1532 5.39833 86.1525 5.22046ZM88.8615 4.86034V4.50801L87.8324 4.57381C87.252 4.61265 86.9888 4.81008 86.9888 5.18161C86.9888 5.56091 87.3178 5.78163 87.7702 5.78163C87.9028 5.79505 88.0367 5.78167 88.164 5.74228C88.2913 5.70288 88.4094 5.63829 88.5112 5.55233C88.613 5.46637 88.6965 5.36082 88.7567 5.24194C88.8169 5.12306 88.8525 4.99329 88.8615 4.86034Z" fill="black"/>
<path d="M90.7827 4.30254C90.7827 2.97087 91.4673 2.12726 92.5321 2.12726C92.7955 2.11513 93.0569 2.17821 93.2857 2.30914C93.5146 2.44007 93.7014 2.63344 93.8244 2.86664H93.8866V0.552002H94.7183V6.41154H93.9213V5.7457H93.8555C93.723 5.97733 93.5296 6.16829 93.2963 6.2979C93.0631 6.42751 92.7988 6.49083 92.5321 6.481C91.46 6.48104 90.7827 5.63742 90.7827 4.30254ZM91.6419 4.30254C91.6419 5.19642 92.0632 5.7343 92.7679 5.7343C93.4689 5.7343 93.9022 5.18866 93.9022 4.3062C93.9022 3.42786 93.4644 2.87445 92.7679 2.87445C92.0678 2.87445 91.6419 3.41598 91.6419 4.30254H91.6419Z" fill="black"/>
<path d="M98.1595 4.30324C98.133 4.02628 98.1647 3.74685 98.2525 3.48285C98.3403 3.21886 98.4824 2.97614 98.6695 2.77025C98.8566 2.56436 99.0847 2.39986 99.3391 2.28729C99.5936 2.17473 99.8687 2.11658 100.147 2.11658C100.425 2.11658 100.7 2.17473 100.955 2.28729C101.209 2.39986 101.437 2.56436 101.624 2.77025C101.812 2.97614 101.954 3.21886 102.041 3.48285C102.129 3.74685 102.161 4.02628 102.134 4.30324C102.161 4.58048 102.13 4.8603 102.042 5.12472C101.955 5.38914 101.813 5.63231 101.626 5.8386C101.439 6.04489 101.21 6.20974 100.956 6.32255C100.701 6.43536 100.425 6.49364 100.147 6.49364C99.8684 6.49364 99.5929 6.43536 99.3382 6.32255C99.0835 6.20974 98.8553 6.04489 98.6681 5.8386C98.4809 5.63231 98.339 5.38914 98.2514 5.12472C98.1638 4.8603 98.1325 4.58048 98.1595 4.30324ZM101.279 4.30324C101.279 3.38971 100.869 2.85549 100.148 2.85549C99.4254 2.85549 99.0187 3.38972 99.0187 4.30325C99.0187 5.22409 99.4254 5.75419 100.148 5.75419C100.869 5.75418 101.279 5.22042 101.279 4.30324Z" fill="black"/>
<path d="M103.25 2.19695H104.051V2.86644H104.113C104.219 2.62598 104.396 2.42441 104.622 2.28982C104.847 2.15523 105.109 2.09433 105.371 2.1156C105.576 2.10018 105.782 2.1311 105.973 2.20606C106.165 2.28103 106.337 2.39811 106.477 2.54865C106.617 2.69919 106.722 2.87931 106.783 3.07569C106.844 3.27206 106.86 3.47965 106.83 3.68307V6.41128H105.998V3.89194C105.998 3.21468 105.704 2.87787 105.088 2.87787C104.949 2.87138 104.81 2.89508 104.681 2.94733C104.552 2.99958 104.435 3.07916 104.34 3.1806C104.244 3.28204 104.172 3.40294 104.127 3.53503C104.083 3.66712 104.067 3.80726 104.082 3.94585V6.41132H103.25V2.19695Z" fill="black"/>
<path d="M111.529 1.14795V2.21639H112.442V2.91697H111.529V5.08402C111.529 5.52547 111.711 5.71878 112.125 5.71878C112.231 5.71844 112.337 5.71203 112.442 5.69958V6.39238C112.293 6.4191 112.142 6.43331 111.99 6.43488C111.065 6.43488 110.697 6.10949 110.697 5.29697V2.91693H110.028V2.21636H110.697V1.14795H111.529Z" fill="black"/>
<path d="M113.578 0.552002H114.403V2.87444H114.469C114.579 2.63173 114.762 2.42902 114.992 2.29392C115.222 2.15883 115.488 2.09791 115.754 2.11949C115.958 2.10839 116.162 2.14244 116.351 2.21923C116.54 2.29601 116.71 2.41363 116.849 2.5637C116.987 2.71376 117.091 2.89257 117.153 3.08736C117.214 3.28216 117.232 3.48815 117.205 3.69062V6.41155H116.372V3.8958C116.372 3.22265 116.059 2.88174 115.471 2.88174C115.328 2.87001 115.185 2.88966 115.05 2.93932C114.915 2.98897 114.793 3.06743 114.692 3.1692C114.591 3.27097 114.514 3.39359 114.465 3.52849C114.416 3.66339 114.397 3.80731 114.41 3.95018V6.41153H113.578L113.578 0.552002Z" fill="black"/>
<path d="M122.055 5.27299C121.942 5.65816 121.697 5.99133 121.363 6.21422C121.029 6.43711 120.628 6.53552 120.228 6.49224C119.951 6.49957 119.675 6.44639 119.42 6.33639C119.165 6.22639 118.937 6.06222 118.752 5.85525C118.566 5.64828 118.428 5.40349 118.347 5.13785C118.266 4.87222 118.244 4.59211 118.282 4.31697C118.245 4.04098 118.267 3.76027 118.348 3.49384C118.429 3.22741 118.567 2.98148 118.751 2.7727C118.935 2.56392 119.162 2.39717 119.416 2.28373C119.671 2.17029 119.946 2.11281 120.225 2.11518C121.397 2.11518 122.105 2.91633 122.105 4.23972V4.52994H119.129V4.57655C119.116 4.7312 119.135 4.88687 119.186 5.03358C119.237 5.18028 119.317 5.31478 119.423 5.42846C119.529 5.54213 119.657 5.63246 119.8 5.69367C119.942 5.75488 120.096 5.7856 120.251 5.78388C120.45 5.80776 120.652 5.77194 120.83 5.68096C121.009 5.58998 121.156 5.44796 121.254 5.27296L122.055 5.27299ZM119.129 3.91481H121.258C121.268 3.77337 121.249 3.6313 121.201 3.49773C121.153 3.36415 121.078 3.24203 120.981 3.13922C120.883 3.0364 120.765 2.95516 120.634 2.90071C120.503 2.84626 120.362 2.81981 120.22 2.82306C120.076 2.82126 119.934 2.84827 119.8 2.9025C119.667 2.95673 119.546 3.03709 119.444 3.13883C119.343 3.24058 119.262 3.36166 119.208 3.49493C119.154 3.6282 119.127 3.77097 119.129 3.91481H119.129Z" fill="black"/>
</svg>
