<svg width="20" height="20" viewBox="0 0 20 20" fill="none" xmlns="http://www.w3.org/2000/svg">
<path d="M10.655 10.2633C10.6546 10.208 10.6431 10.1534 10.6214 10.1026C10.5996 10.0519 10.568 10.0059 10.5283 9.96745L2.25417 1.95995C2.20356 1.91097 2.14135 1.87562 2.07337 1.8572C2.00539 1.83878 1.93385 1.83789 1.86543 1.85462C1.79702 1.87135 1.73396 1.90515 1.68215 1.95287C1.63034 2.00058 1.59147 2.06064 1.56917 2.12745C1.51215 2.29209 1.48231 2.4649 1.48083 2.63912V17.765C1.48083 18.0783 1.56917 18.3725 1.7425 18.6391C1.77645 18.691 1.82151 18.7347 1.87441 18.767C1.92731 18.7993 1.98674 18.8195 2.04838 18.826C2.11003 18.8325 2.17236 18.8253 2.23087 18.8048C2.28937 18.7843 2.34259 18.751 2.38667 18.7075L10.5325 10.5616C10.5715 10.5224 10.6024 10.4758 10.6235 10.4247C10.6445 10.3735 10.6552 10.3186 10.655 10.2633ZM11.1267 9.38745C11.205 9.46415 11.3104 9.50676 11.42 9.50598C11.5296 9.5052 11.6345 9.46109 11.7117 9.38329L13.8158 7.27912C13.8613 7.23323 13.8954 7.17745 13.9157 7.11614C13.936 7.05483 13.9418 6.98966 13.9327 6.92573C13.9235 6.86181 13.8998 6.80086 13.8631 6.74767C13.8265 6.69448 13.7781 6.65048 13.7217 6.61912L3.85333 1.21495C3.76423 1.17069 3.66227 1.15962 3.56574 1.18376C3.46922 1.20789 3.38446 1.26563 3.32667 1.34662C3.26939 1.42807 3.24304 1.52728 3.25236 1.62641C3.26168 1.72555 3.30605 1.81811 3.3775 1.88745L11.1267 9.38745ZM17.6808 8.78662L15.2442 7.45162C15.165 7.40868 15.0741 7.39239 14.9849 7.40514C14.8958 7.4179 14.8131 7.45904 14.7492 7.52245L12.32 9.95162C12.281 9.99072 12.2502 10.0372 12.2293 10.0883C12.2084 10.1394 12.1979 10.1941 12.1984 10.2493C12.1989 10.3045 12.2103 10.3591 12.232 10.4099C12.2538 10.4606 12.2854 10.5065 12.325 10.545L14.7467 12.8891C14.8108 12.9506 14.8929 12.9901 14.9809 13.002C15.069 13.0138 15.1586 12.9973 15.2367 12.955L17.6808 11.6166C18.2058 11.3291 18.5192 10.8 18.5192 10.2016C18.5192 9.60329 18.2058 9.07412 17.6808 8.78662ZM11.7258 11.1258C11.6473 11.0499 11.542 11.0078 11.4327 11.0088C11.3235 11.0097 11.2189 11.0535 11.1417 11.1308L4.20833 18.0641C4.1347 18.1342 4.08938 18.229 4.08097 18.3303C4.07256 18.4316 4.10164 18.5325 4.1627 18.6138C4.22375 18.6951 4.31254 18.7512 4.4122 18.7714C4.51186 18.7916 4.61546 18.7744 4.70333 18.7233L13.7067 13.7933C13.7641 13.762 13.8133 13.7177 13.8503 13.6638C13.8874 13.61 13.9112 13.5482 13.9199 13.4834C13.9285 13.4186 13.9218 13.3527 13.9003 13.291C13.8787 13.2293 13.843 13.1736 13.7958 13.1283L11.7258 11.1258Z" fill="black"/>
</svg>
