<svg width="100" height="16" viewBox="0 0 100 16" fill="none" xmlns="http://www.w3.org/2000/svg">
<path d="M12.0023 1.49744V4.22564H7.63215V15.7128H4.37019V4.22564H0V1.49744H12.0023Z" fill="white"/>
<path d="M11.7946 10.4C11.7946 9.44273 11.9409 8.60855 12.2337 7.89744C12.5403 7.17265 12.9376 6.57094 13.4255 6.09231C13.9134 5.61368 14.471 5.25128 15.0983 5.00513C15.7396 4.75897 16.3948 4.6359 17.0639 4.6359C18.6252 4.6359 19.8588 5.10769 20.7649 6.05128C21.671 6.9812 22.1241 8.35555 22.1241 10.1744C22.1241 10.3521 22.1171 10.5504 22.1032 10.7692C22.0892 10.9744 22.0753 11.159 22.0614 11.3231H14.9938C15.0635 11.9521 15.3632 12.4513 15.8929 12.8205C16.4226 13.1897 17.1336 13.3744 18.0257 13.3744C18.5973 13.3744 19.1549 13.3265 19.6985 13.2308C20.2561 13.1214 20.7092 12.9915 21.0577 12.841L21.4759 15.3231C21.3086 15.4051 21.0856 15.4872 20.8068 15.5692C20.528 15.6513 20.2143 15.7197 19.8658 15.7744C19.5313 15.8427 19.1688 15.8974 18.7785 15.9385C18.3882 15.9795 17.9979 16 17.6075 16C16.6178 16 15.7535 15.8564 15.0147 15.5692C14.2898 15.2821 13.6834 14.8923 13.1955 14.4C12.7216 13.894 12.3661 13.2991 12.1291 12.6154C11.9061 11.9316 11.7946 11.1932 11.7946 10.4ZM19.1131 9.23077C19.0991 8.97094 19.0503 8.71795 18.9667 8.47179C18.897 8.22564 18.7785 8.00684 18.6112 7.81538C18.4579 7.62393 18.2557 7.46667 18.0048 7.34359C17.7678 7.22051 17.4681 7.15897 17.1057 7.15897C16.7572 7.15897 16.4575 7.22051 16.2066 7.34359C15.9556 7.45299 15.7465 7.60342 15.5793 7.79487C15.412 7.98632 15.2796 8.21197 15.182 8.47179C15.0983 8.71795 15.0356 8.97094 14.9938 9.23077H19.1131Z" fill="white"/>
<path d="M31.1569 7.63077C30.8781 7.56239 30.5505 7.49402 30.1741 7.42564C29.7977 7.34359 29.3935 7.30256 28.9613 7.30256C28.7662 7.30256 28.5292 7.32308 28.2504 7.3641C27.9855 7.39145 27.7834 7.42564 27.644 7.46667V15.7128H24.5284V5.49744C25.086 5.30598 25.7412 5.1282 26.494 4.9641C27.2607 4.78632 28.111 4.69744 29.045 4.69744C29.2123 4.69744 29.4144 4.71111 29.6514 4.73846C29.8884 4.75214 30.1253 4.77949 30.3623 4.82051C30.5993 4.84786 30.8363 4.88889 31.0733 4.94359C31.3102 4.98461 31.5124 5.03932 31.6796 5.10769L31.1569 7.63077Z" fill="white"/>
<path d="M39.3928 9.98974C39.3928 9.00513 39.2604 8.30769 38.9955 7.89744C38.7446 7.48718 38.3055 7.28205 37.6782 7.28205C37.483 7.28205 37.2809 7.29573 37.0718 7.32308C36.8627 7.33675 36.6606 7.35726 36.4654 7.38462V15.7128H33.3498V5.29231C33.6147 5.22393 33.9214 5.15556 34.2699 5.08718C34.6323 5.00513 35.0087 4.93675 35.399 4.88205C35.8033 4.81367 36.2145 4.76581 36.6327 4.73846C37.0509 4.69744 37.4621 4.67692 37.8664 4.67692C38.661 4.67692 39.3022 4.77949 39.7901 4.98462C40.292 5.17607 40.7032 5.40855 41.0238 5.68205C41.4699 5.36752 41.9787 5.12137 42.5502 4.94359C43.1357 4.76581 43.6724 4.67692 44.1603 4.67692C45.0385 4.67692 45.7564 4.8 46.314 5.04615C46.8856 5.27863 47.3386 5.61368 47.6732 6.05128C48.0078 6.48889 48.2378 7.00855 48.3632 7.61026C48.4887 8.21197 48.5514 8.88205 48.5514 9.62051V15.7128H45.4358V9.98974C45.4358 9.00513 45.3034 8.30769 45.0385 7.89744C44.7876 7.48718 44.3485 7.28205 43.7212 7.28205C43.5539 7.28205 43.3169 7.32308 43.0103 7.40513C42.7175 7.48718 42.4736 7.58974 42.2784 7.71282C42.376 8.02735 42.4387 8.36239 42.4666 8.71795C42.4945 9.05983 42.5084 9.42906 42.5084 9.82564V15.7128H39.3928V9.98974Z" fill="white"/>
<path d="M54.4962 15.7128H51.3806V4.92308H54.4962V15.7128ZM54.789 1.80513C54.789 2.36581 54.6008 2.81026 54.2244 3.13846C53.8619 3.45299 53.4298 3.61026 52.928 3.61026C52.4261 3.61026 51.987 3.45299 51.6106 3.13846C51.2482 2.81026 51.067 2.36581 51.067 1.80513C51.067 1.24444 51.2482 0.806837 51.6106 0.492307C51.987 0.164102 52.4261 0 52.928 0C53.4298 0 53.8619 0.164102 54.2244 0.492307C54.6008 0.806837 54.789 1.24444 54.789 1.80513Z" fill="white"/>
<path d="M61.9833 1.33333C64.144 1.33333 65.8029 1.7094 66.9599 2.46154C68.1169 3.2 68.6954 4.41709 68.6954 6.11282C68.6954 7.82222 68.1099 9.05983 66.939 9.82564C65.768 10.5778 64.0952 10.9538 61.9206 10.9538H60.896V15.7128H57.634V1.70256C58.345 1.56581 59.0977 1.47009 59.8923 1.41538C60.6869 1.36068 61.3839 1.33333 61.9833 1.33333ZM62.1924 4.06154C61.9554 4.06154 61.7185 4.06838 61.4815 4.08205C61.2584 4.09573 61.0633 4.1094 60.896 4.12308V8.22564H61.9206C63.0497 8.22564 63.9001 8.07521 64.4716 7.77436C65.0431 7.4735 65.3289 6.91282 65.3289 6.09231C65.3289 5.69573 65.2522 5.36752 65.0989 5.10769C64.9595 4.84786 64.7504 4.64274 64.4716 4.49231C64.2067 4.32821 63.8792 4.2188 63.4888 4.1641C63.0985 4.09573 62.6664 4.06154 62.1924 4.06154Z" fill="white"/>
<path d="M74.6762 13.5795C74.9829 13.5795 75.2756 13.5726 75.5544 13.559C75.8332 13.5453 76.0562 13.5248 76.2235 13.4974V11.1795C76.0981 11.1521 75.9099 11.1248 75.659 11.0974C75.408 11.0701 75.178 11.0564 74.9689 11.0564C74.6762 11.0564 74.3974 11.0769 74.1325 11.1179C73.8816 11.1453 73.6586 11.2068 73.4634 11.3026C73.2682 11.3983 73.1149 11.5282 73.0034 11.6923C72.8919 11.8564 72.8361 12.0615 72.8361 12.3077C72.8361 12.7863 72.9964 13.1214 73.317 13.3128C73.6516 13.4906 74.1046 13.5795 74.6762 13.5795ZM74.4253 4.6359C75.3453 4.6359 76.112 4.73846 76.7254 4.94359C77.3387 5.14872 77.8266 5.44273 78.1891 5.82564C78.5654 6.20855 78.8303 6.6735 78.9836 7.22051C79.137 7.76752 79.2137 8.37607 79.2137 9.04615V15.4051C78.7676 15.5009 78.1472 15.6103 77.3527 15.7333C76.5581 15.8701 75.5962 15.9385 74.4671 15.9385C73.7561 15.9385 73.1079 15.8769 72.5224 15.7538C71.9509 15.6308 71.456 15.4325 71.0378 15.159C70.6196 14.8718 70.299 14.5026 70.076 14.0513C69.8529 13.6 69.7414 13.0462 69.7414 12.3897C69.7414 11.7607 69.8669 11.2274 70.1178 10.7897C70.3827 10.3521 70.7312 10.0034 71.1633 9.74359C71.5954 9.48376 72.0903 9.29914 72.6479 9.18974C73.2055 9.06667 73.784 9.00513 74.3834 9.00513C74.7877 9.00513 75.1432 9.02564 75.4499 9.06667C75.7705 9.09402 76.0284 9.13504 76.2235 9.18974V8.90256C76.2235 8.38291 76.0632 7.96581 75.7426 7.65128C75.422 7.33675 74.8644 7.17949 74.0698 7.17949C73.5401 7.17949 73.0173 7.22051 72.5015 7.30256C71.9858 7.37094 71.5397 7.4735 71.1633 7.61026L70.766 5.14872C70.9472 5.09402 71.1703 5.03932 71.4351 4.98462C71.7139 4.91624 72.0136 4.86154 72.3343 4.82051C72.6549 4.76581 72.9894 4.72479 73.3379 4.69744C73.7004 4.65641 74.0628 4.6359 74.4253 4.6359Z" fill="white"/>
<path d="M85.1884 13.5179C85.7599 13.5179 86.1642 13.4632 86.4011 13.3538C86.6381 13.2444 86.7566 13.0325 86.7566 12.7179C86.7566 12.4718 86.6033 12.2598 86.2966 12.0821C85.9899 11.8906 85.5229 11.6786 84.8956 11.4462C84.4077 11.2684 83.9616 11.0838 83.5574 10.8923C83.1671 10.7009 82.8325 10.4752 82.5537 10.2154C82.2749 9.94188 82.0588 9.62051 81.9055 9.25128C81.7522 8.88205 81.6755 8.43761 81.6755 7.91795C81.6755 6.90598 82.0588 6.10598 82.8255 5.51795C83.5922 4.92991 84.6447 4.6359 85.9829 4.6359C86.6521 4.6359 87.2933 4.69744 87.9067 4.82051C88.52 4.92991 89.0079 5.05299 89.3704 5.18974L88.8267 7.56923C88.4643 7.44615 88.067 7.33675 87.6348 7.24103C87.2166 7.1453 86.7427 7.09744 86.213 7.09744C85.2372 7.09744 84.7493 7.3641 84.7493 7.89744C84.7493 8.02051 84.7702 8.12991 84.812 8.22564C84.8538 8.32137 84.9374 8.41709 85.0629 8.51282C85.1884 8.59487 85.3556 8.6906 85.5647 8.8C85.7878 8.89573 86.0666 9.00513 86.4011 9.12821C87.0842 9.37436 87.6488 9.62051 88.0948 9.86667C88.5409 10.0991 88.8894 10.359 89.1404 10.6462C89.4052 10.9197 89.5864 11.2274 89.684 11.5692C89.7955 11.9111 89.8513 12.3077 89.8513 12.759C89.8513 13.8256 89.4401 14.6325 88.6176 15.1795C87.8091 15.7265 86.659 16 85.1674 16C84.1917 16 83.3762 15.9179 82.721 15.7538C82.0797 15.5897 81.6337 15.453 81.3827 15.3436L81.9055 12.8615C82.4352 13.0667 82.9789 13.2308 83.5365 13.3538C84.0941 13.4632 84.6447 13.5179 85.1884 13.5179Z" fill="white"/>
<path d="M95.3371 13.5179C95.9086 13.5179 96.3129 13.4632 96.5499 13.3538C96.7868 13.2444 96.9053 13.0325 96.9053 12.7179C96.9053 12.4718 96.752 12.2598 96.4453 12.0821C96.1386 11.8906 95.6716 11.6786 95.0443 11.4462C94.5564 11.2684 94.1103 11.0838 93.7061 10.8923C93.3158 10.7009 92.9812 10.4752 92.7024 10.2154C92.4236 9.94188 92.2075 9.62051 92.0542 9.25128C91.9009 8.88205 91.8242 8.43761 91.8242 7.91795C91.8242 6.90598 92.2075 6.10598 92.9742 5.51795C93.7409 4.92991 94.7934 4.6359 96.1316 4.6359C96.8008 4.6359 97.442 4.69744 98.0554 4.82051C98.6687 4.92991 99.1566 5.05299 99.5191 5.18974L98.9754 7.56923C98.613 7.44615 98.2157 7.33675 97.7835 7.24103C97.3653 7.1453 96.8914 7.09744 96.3617 7.09744C95.3859 7.09744 94.898 7.3641 94.898 7.89744C94.898 8.02051 94.9189 8.12991 94.9607 8.22564C95.0025 8.32137 95.0862 8.41709 95.2116 8.51282C95.3371 8.59487 95.5043 8.6906 95.7134 8.8C95.9365 8.89573 96.2153 9.00513 96.5499 9.12821C97.2329 9.37436 97.7975 9.62051 98.2436 9.86667C98.6896 10.0991 99.0381 10.359 99.2891 10.6462C99.5539 10.9197 99.7351 11.2274 99.8327 11.5692C99.9442 11.9111 100 12.3077 100 12.759C100 13.8256 99.5888 14.6325 98.7663 15.1795C97.9578 15.7265 96.8077 16 95.3162 16C94.3404 16 93.5249 15.9179 92.8697 15.7538C92.2284 15.5897 91.7824 15.453 91.5314 15.3436L92.0542 12.8615C92.5839 13.0667 93.1276 13.2308 93.6852 13.3538C94.2428 13.4632 94.7934 13.5179 95.3371 13.5179Z" fill="white"/>
</svg>
