<svg width="101" height="20" viewBox="0 0 101 20" fill="none" xmlns="http://www.w3.org/2000/svg">
<path d="M12.0715 1.53523V4.33228H7.67613V16.1094H4.39538V4.33228H0V1.53523H12.0715ZM11.8627 10.6625C11.8627 9.68101 12.0099 8.82582 12.3043 8.09674C12.6123 7.35369 13.0119 6.73674 13.5031 6.24606C13.9935 5.75537 14.5546 5.38381 15.1855 5.13144C15.83 4.87908 16.4894 4.75289 17.1624 4.75289C18.7322 4.75289 19.973 5.23659 20.8848 6.204C21.7959 7.15735 22.2518 8.5664 22.2518 10.4311C22.2518 10.6134 22.2443 10.8167 22.2307 11.041C22.2165 11.2513 22.2022 11.4406 22.1887 11.6088H15.0804C15.1502 12.2538 15.4514 12.7655 15.9847 13.1441C16.5172 13.5226 17.2322 13.7119 18.1298 13.7119C18.7044 13.7119 19.2654 13.6628 19.8122 13.5647C20.3725 13.4525 20.8284 13.3193 21.1792 13.1651L21.5998 15.7098C21.4316 15.7939 21.207 15.878 20.9268 15.9621C20.6459 16.0463 20.3305 16.1163 19.9805 16.1725C19.644 16.2425 19.279 16.2986 18.8869 16.3407C18.4941 16.3828 18.1012 16.4038 17.7092 16.4038C16.7132 16.4038 15.8442 16.2566 15.1014 15.9621C14.3721 15.6677 13.7622 15.2681 13.2717 14.7634C12.7948 14.2446 12.4373 13.6347 12.1992 12.9338C11.9746 12.2328 11.8627 11.4757 11.8627 10.6625ZM19.2234 9.46372C19.2091 9.19731 19.1603 8.93796 19.0762 8.6856C19.0056 8.43323 18.8869 8.20888 18.7186 8.01262C18.5639 7.81636 18.3611 7.6551 18.1088 7.52892C17.8699 7.40274 17.5687 7.33964 17.2045 7.33964C16.8537 7.33964 16.5525 7.40274 16.3001 7.52892C16.0478 7.64106 15.8375 7.79533 15.6692 7.99159C15.501 8.18785 15.3673 8.41918 15.2696 8.6856C15.1855 8.93796 15.1224 9.19731 15.0804 9.46372H19.2234ZM31.3362 7.82334C31.056 7.75327 30.7263 7.68312 30.3478 7.61304C29.9692 7.52892 29.5629 7.48686 29.128 7.48686C28.932 7.48686 28.6939 7.50789 28.413 7.54995C28.1471 7.57796 27.9435 7.61304 27.8031 7.6551V16.1094H24.6695V5.63617C25.2306 5.43991 25.8893 5.25762 26.6464 5.08938C27.4178 4.90709 28.2732 4.81598 29.2121 4.81598C29.3804 4.81598 29.5839 4.83003 29.822 4.85805C30.0608 4.87209 30.2989 4.90011 30.537 4.94217C30.7759 4.97018 31.014 5.01224 31.2521 5.06835C31.4909 5.11041 31.6937 5.16652 31.862 5.23659L31.3362 7.82334ZM39.6199 10.2419C39.6199 9.23239 39.4863 8.51735 39.2204 8.09674C38.968 7.67613 38.5264 7.46583 37.8955 7.46583C37.6987 7.46583 37.4959 7.47987 37.2856 7.50789C37.0753 7.52193 36.8717 7.54296 36.6757 7.57098V16.1094H33.5421V5.42587C33.808 5.35579 34.1167 5.28564 34.4675 5.21556C34.8318 5.13144 35.2103 5.06136 35.6031 5.00526C36.0095 4.93518 36.4233 4.88606 36.8439 4.85805C37.2645 4.81598 37.6776 4.79495 38.0847 4.79495C38.8839 4.79495 39.5283 4.90011 40.0195 5.11041C40.5243 5.30667 40.9374 5.54507 41.2603 5.82545C41.7087 5.503 42.2202 5.25064 42.7955 5.06835C43.3844 4.88606 43.9237 4.79495 44.4149 4.79495C45.2982 4.79495 46.02 4.92114 46.581 5.1735C47.1556 5.41182 47.6115 5.75537 47.948 6.204C48.2845 6.65262 48.5159 7.18544 48.642 7.80231C48.7682 8.41918 48.8313 9.1062 48.8313 9.8633V16.1094H45.6978V10.2419C45.6978 9.23239 45.5641 8.51735 45.2982 8.09674C45.0458 7.67613 44.6042 7.46583 43.9733 7.46583C43.805 7.46583 43.5662 7.50789 43.2582 7.59201C42.9638 7.67613 42.7182 7.78129 42.5222 7.90747C42.6198 8.22991 42.6829 8.57346 42.7114 8.93796C42.7392 9.28849 42.7535 9.66704 42.7535 10.0736V16.1094H39.6199V10.2419ZM54.81 16.1094H51.6764V5.04732H54.81V16.1094ZM55.1044 1.85068C55.1044 2.42549 54.9151 2.88118 54.5366 3.21767C54.1723 3.54011 53.7374 3.70137 53.2327 3.70137C52.728 3.70137 52.2863 3.54011 51.9078 3.21767C51.5435 2.88118 51.361 2.42549 51.361 1.85068C51.361 1.27588 51.5435 0.827175 51.9078 0.504732C52.2863 0.168245 52.728 0 53.2327 0C53.7374 0 54.1723 0.168245 54.5366 0.504732C54.9151 0.827175 55.1044 1.27588 55.1044 1.85068ZM64.843 10.6625C64.843 9.69506 64.626 8.92391 64.1911 8.34911C63.7562 7.76025 63.1118 7.46583 62.2563 7.46583C61.9761 7.46583 61.7162 7.47987 61.4781 7.50789C61.24 7.52193 61.0433 7.54296 60.8893 7.57098V13.2282C61.0853 13.3544 61.3377 13.4595 61.6464 13.5436C61.9686 13.6278 62.2916 13.6698 62.6138 13.6698C64.1002 13.6698 64.843 12.6673 64.843 10.6625ZM68.0396 10.5783C68.0396 11.4336 67.9345 12.2117 67.7242 12.9127C67.5139 13.6137 67.2052 14.2166 66.7989 14.7213C66.3925 15.2261 65.8878 15.6187 65.2847 15.8991C64.6815 16.1794 63.9875 16.3197 63.2026 16.3197C62.7678 16.3197 62.3614 16.2776 61.9829 16.1935C61.6043 16.1094 61.2401 15.9902 60.8893 15.836V20H57.7557V5.42587C58.0359 5.34175 58.3589 5.26461 58.7231 5.19453C59.0874 5.11041 59.466 5.04033 59.8588 4.98423C60.2651 4.92812 60.6722 4.88606 61.0786 4.85805C61.4992 4.81598 61.8988 4.79495 62.2773 4.79495C63.1884 4.79495 64.0018 4.93518 64.7168 5.21556C65.4319 5.48197 66.035 5.86751 66.5255 6.37224C67.0159 6.86293 67.3877 7.46583 67.6401 8.18086C67.9067 8.8959 68.0396 9.69506 68.0396 10.5783ZM74.6755 13.9222C74.9835 13.9222 75.2779 13.9152 75.5588 13.9012C75.839 13.8871 76.0635 13.8661 76.2318 13.8381V11.4616C76.1056 11.4336 75.9163 11.4055 75.664 11.3775C75.4116 11.3495 75.1803 11.3354 74.97 11.3354C74.6755 11.3354 74.3946 11.3565 74.1287 11.3985C73.8764 11.4265 73.6518 11.4896 73.4558 11.5878C73.259 11.686 73.105 11.8191 72.9931 11.9874C72.8804 12.1556 72.8248 12.3659 72.8248 12.6183C72.8248 13.109 72.9856 13.4525 73.3085 13.6488C73.645 13.8311 74.1002 13.9222 74.6755 13.9222ZM74.4232 4.75289C75.3485 4.75289 76.1191 4.85804 76.7365 5.06835C77.3532 5.27865 77.8436 5.58007 78.2086 5.97266C78.5872 6.36526 78.8531 6.8419 79.0078 7.40274C79.1618 7.96357 79.2392 8.58743 79.2392 9.27445V15.7939C78.79 15.8921 78.1666 16.0042 77.3674 16.1304C76.5683 16.2706 75.6009 16.3407 74.4652 16.3407C73.7502 16.3407 73.0982 16.2776 72.5094 16.1514C71.9341 16.0252 71.4368 15.8219 71.0162 15.5415C70.5956 15.2471 70.2726 14.8686 70.0488 14.4059C69.8242 13.9432 69.7123 13.3754 69.7123 12.7024C69.7123 12.0575 69.8385 11.5107 70.0909 11.062C70.3568 10.6134 70.7075 10.2559 71.1424 9.98949C71.5765 9.72307 72.0745 9.5338 72.6356 9.42166C73.1959 9.29548 73.778 9.23239 74.3811 9.23239C74.7874 9.23239 75.145 9.25342 75.4537 9.29548C75.7759 9.3235 76.035 9.36556 76.2318 9.42166V9.12723C76.2318 8.59449 76.0703 8.16682 75.7481 7.84437C75.4251 7.52193 74.8648 7.36067 74.0656 7.36067C73.5324 7.36067 73.0066 7.40274 72.4884 7.48686C71.9694 7.55693 71.521 7.66209 71.1424 7.80231L70.7428 5.27866C70.9246 5.22255 71.1492 5.16652 71.4158 5.11041C71.696 5.04033 71.9971 4.98423 72.3201 4.94217C72.6423 4.88606 72.9788 4.844 73.3296 4.81598C73.6938 4.77392 74.0581 4.75289 74.4232 4.75289ZM85.2479 13.8591C85.8224 13.8591 86.2295 13.803 86.4676 13.6909C86.7057 13.5787 86.8251 13.3614 86.8251 13.0389C86.8251 12.7865 86.6712 12.5693 86.3625 12.387C86.0538 12.1907 85.5844 11.9733 84.9534 11.735C84.463 11.5527 84.0138 11.3635 83.6075 11.1672C83.2147 10.9709 82.8782 10.7396 82.598 10.4732C82.3179 10.1928 82.1 9.8633 81.9461 9.48475C81.7921 9.1062 81.7147 8.65052 81.7147 8.11777C81.7147 7.08029 82.1 6.2601 82.8714 5.6572C83.6428 5.0543 84.7011 4.75289 86.047 4.75289C86.72 4.75289 87.3652 4.81598 87.9818 4.94217C88.5985 5.0543 89.0897 5.18049 89.4539 5.32072L88.9072 7.76025C88.5429 7.63407 88.1433 7.52193 87.7084 7.42377C87.2878 7.3256 86.8109 7.27655 86.2784 7.27655C85.2967 7.27655 84.8062 7.54995 84.8062 8.09674C84.8062 8.22293 84.8272 8.33506 84.8693 8.43323C84.9114 8.5314 84.9955 8.62949 85.1217 8.72766C85.2479 8.81178 85.4161 8.90994 85.6264 9.02208C85.851 9.12025 86.1311 9.23239 86.4676 9.35857C87.1549 9.61094 87.7227 9.8633 88.1711 10.1157C88.6195 10.354 88.9703 10.6204 89.2226 10.9148C89.4893 11.1952 89.671 11.5107 89.7694 11.8612C89.8813 12.2117 89.9377 12.6183 89.9377 13.081C89.9377 14.1746 89.5238 15.0017 88.6969 15.5626C87.8834 16.1234 86.7268 16.4038 85.2268 16.4038C84.2452 16.4038 83.425 16.3197 82.7663 16.1514C82.1211 15.9832 81.6727 15.8429 81.4203 15.7308L81.9461 13.1861C82.4786 13.3964 83.0254 13.5647 83.5864 13.6909C84.1475 13.803 84.7011 13.8591 85.2479 13.8591ZM95.4552 13.8591C96.0297 13.8591 96.4368 13.803 96.6749 13.6909C96.913 13.5787 97.0324 13.3614 97.0324 13.0389C97.0324 12.7865 96.8785 12.5693 96.5698 12.387C96.2611 12.1907 95.7916 11.9733 95.1607 11.735C94.6703 11.5527 94.2211 11.3635 93.8148 11.1672C93.422 10.9709 93.0855 10.7396 92.8053 10.4732C92.5252 10.1928 92.3074 9.8633 92.1534 9.48475C91.9994 9.1062 91.922 8.65052 91.922 8.11777C91.922 7.08029 92.3073 6.2601 93.0787 5.6572C93.8501 5.0543 94.9084 4.75289 96.2543 4.75289C96.9273 4.75289 97.5725 4.81598 98.1891 4.94217C98.8058 5.0543 99.297 5.18049 99.6612 5.32072L99.1145 7.76025C98.7502 7.63407 98.3506 7.52193 97.9157 7.42377C97.4951 7.3256 97.0182 7.27655 96.4856 7.27655C95.504 7.27655 95.0135 7.54995 95.0135 8.09674C95.0135 8.22293 95.0346 8.33506 95.0766 8.43323C95.1187 8.5314 95.2028 8.62949 95.329 8.72766C95.4552 8.81178 95.6234 8.90994 95.8337 9.02208C96.0583 9.12025 96.3384 9.23239 96.6749 9.35857C97.3622 9.61094 97.93 9.8633 98.3784 10.1157C98.8268 10.354 99.1776 10.6204 99.4299 10.9148C99.6965 11.1952 99.8783 11.5107 99.9767 11.8612C100.089 12.2117 100.145 12.6183 100.145 13.081C100.145 14.1746 99.7311 15.0017 98.9042 15.5626C98.0907 16.1234 96.9341 16.4038 95.4341 16.4038C94.4525 16.4038 93.6323 16.3197 92.9736 16.1514C92.3284 15.9832 91.88 15.8429 91.6276 15.7308L92.1534 13.1861C92.6859 13.3964 93.2327 13.5647 93.7937 13.6909C94.3548 13.803 94.9084 13.8591 95.4552 13.8591Z" fill="white"/>
</svg>
