<svg width="24" height="24" viewBox="0 0 24 24" fill="none" xmlns="http://www.w3.org/2000/svg">
<mask id="mask0_4477_37317" style="mask-type:alpha" maskUnits="userSpaceOnUse" x="0" y="0" width="24" height="24">
<rect width="24" height="24" fill="#D9D9D9"/>
</mask>
<g mask="url(#mask0_4477_37317)">
<path d="M4.50809 19.9003C4.05796 19.9003 3.67747 19.7449 3.36664 19.434C3.05581 19.1232 2.90039 18.7427 2.90039 18.2926V8.10804C2.90039 7.65791 3.05581 7.27742 3.36664 6.96659C3.67747 6.65576 4.05796 6.50034 4.50809 6.50034H7.70039V5.00277C7.70039 4.55118 7.85581 4.17122 8.16664 3.86289C8.47747 3.55456 8.85796 3.40039 9.30809 3.40039H14.6926C15.1428 3.40039 15.5233 3.55581 15.8341 3.86664C16.1449 4.17747 16.3003 4.55795 16.3003 5.00807V6.50034H19.4926C19.9428 6.50034 20.3233 6.65576 20.6341 6.96659C20.9449 7.27742 21.1003 7.65791 21.1003 8.10804V18.2926C21.1003 18.7427 20.9449 19.1232 20.6341 19.434C20.3233 19.7449 19.9428 19.9003 19.4926 19.9003H4.50809ZM9.00037 6.50034H15.0004V5.00807C15.0004 4.93113 14.9683 4.86062 14.9042 4.79652C14.8401 4.7324 14.7696 4.70034 14.6926 4.70034H9.30809C9.23116 4.70034 9.16063 4.7324 9.09652 4.79652C9.03242 4.86062 9.00037 4.93113 9.00037 5.00807V6.50034ZM19.8004 14.4503H14.5003V15.4964C14.5003 15.7258 14.4237 15.9171 14.2704 16.0704C14.1172 16.2237 13.9258 16.3003 13.6965 16.3003H10.3042C10.0749 16.3003 9.88358 16.2237 9.73032 16.0704C9.57703 15.9171 9.50039 15.7258 9.50039 15.4964V14.4503H4.20037V18.2926C4.20037 18.3695 4.23242 18.4401 4.29652 18.5042C4.36063 18.5683 4.43116 18.6003 4.50809 18.6003H19.4926C19.5696 18.6003 19.6401 18.5683 19.7042 18.5042C19.7683 18.4401 19.8004 18.3695 19.8004 18.2926V14.4503ZM10.8004 15.0003H13.2004V12.6003H10.8004V15.0003ZM4.20037 13.1503H9.50039V12.1042C9.50039 11.8748 9.57703 11.6835 9.73032 11.5303C9.88358 11.377 10.0749 11.3003 10.3042 11.3003H13.6965C13.9258 11.3003 14.1172 11.377 14.2704 11.5303C14.4237 11.6835 14.5003 11.8748 14.5003 12.1042V13.1503H19.8004V8.10804C19.8004 8.03111 19.7683 7.96058 19.7042 7.89647C19.6401 7.83237 19.5696 7.80032 19.4926 7.80032H4.50809C4.43116 7.80032 4.36063 7.83237 4.29652 7.89647C4.23242 7.96058 4.20037 8.03111 4.20037 8.10804V13.1503Z" fill="#5C5C5C"/>
</g>
</svg>
