<svg width="24" height="24" viewBox="0 0 24 24" fill="none" xmlns="http://www.w3.org/2000/svg">
<mask id="mask0_4408_49310" style="mask-type:alpha" maskUnits="userSpaceOnUse" x="0" y="0" width="24" height="24">
<rect width="24" height="24" fill="#D9D9D9"/>
</mask>
<g mask="url(#mask0_4408_49310)">
<path d="M6.10361 19.9006C5.87911 19.9006 5.68903 19.8227 5.53336 19.6668C5.37753 19.5112 5.29961 19.3211 5.29961 19.0966V17.6236C5.29961 17.4159 5.33811 17.2134 5.41511 17.0161C5.49194 16.8186 5.61244 16.6378 5.77661 16.4736L17.7689 4.47184C17.9074 4.33334 18.0529 4.23684 18.2054 4.18234C18.358 4.12784 18.5189 4.10059 18.6881 4.10059C18.8509 4.10059 19.0119 4.12784 19.1709 4.18234C19.3297 4.23684 19.4784 4.33334 19.6169 4.47184L20.7284 5.58334C20.8669 5.72184 20.9634 5.8705 21.0179 6.02934C21.0724 6.18834 21.0996 6.34925 21.0996 6.51209C21.0996 6.68125 21.0724 6.84217 21.0179 6.99484C20.9634 7.14734 20.8669 7.29284 20.7284 7.43134L8.72661 19.4236C8.56244 19.5878 8.38161 19.7083 8.18411 19.7851C7.98678 19.8621 7.78428 19.9006 7.57661 19.9006H6.10361ZM6.59961 18.6006H7.71111L17.5766 8.72559L17.0381 8.16209L16.4746 7.62359L6.59961 17.4891V18.6006ZM17.0381 8.16209L16.4746 7.62359L17.5766 8.72559L17.0381 8.16209ZM14.2344 19.9006C15.1869 19.9006 16.1333 19.6272 17.0736 19.0803C18.0139 18.5335 18.4841 17.7903 18.4841 16.8506C18.4841 16.3468 18.363 15.9176 18.1209 15.5631C17.8785 15.2086 17.499 14.8743 16.9824 14.5601C16.84 14.4614 16.6817 14.4258 16.5074 14.4533C16.333 14.481 16.183 14.5641 16.0574 14.7026C15.9317 14.8409 15.8868 15.0008 15.9226 15.1823C15.9586 15.3637 16.0478 15.5038 16.1901 15.6026C16.5196 15.7986 16.7677 15.9896 16.9344 16.1756C17.101 16.3614 17.1844 16.5864 17.1844 16.8506C17.1844 17.3236 16.8677 17.7335 16.2344 18.0803C15.601 18.4272 14.9344 18.6006 14.2344 18.6006C14.0715 18.6006 13.9224 18.6683 13.7871 18.8036C13.6519 18.9388 13.5844 19.0878 13.5844 19.2506C13.5844 19.4301 13.6519 19.5833 13.7871 19.7101C13.9224 19.8371 14.0715 19.9006 14.2344 19.9006ZM9.49961 6.55059C9.49961 6.82492 9.34286 7.09709 9.02936 7.36709C8.71603 7.63692 8.06636 8.00517 7.08036 8.47184C5.95853 9.01917 5.18128 9.50342 4.74861 9.92459C4.31594 10.3458 4.09961 10.8211 4.09961 11.3506C4.09961 11.7981 4.22269 12.1731 4.46886 12.4756C4.71503 12.7781 5.01311 13.0333 5.36311 13.2411C5.52844 13.3231 5.69669 13.3417 5.86786 13.2968C6.03903 13.2518 6.17394 13.155 6.27261 13.0063C6.37144 12.8577 6.39678 12.692 6.34861 12.5093C6.30061 12.3267 6.19386 12.1943 6.02836 12.1121C5.83736 11.9968 5.68486 11.8714 5.57086 11.7361C5.45669 11.6009 5.39961 11.4724 5.39961 11.3506C5.39961 11.1326 5.56311 10.897 5.89011 10.6438C6.21694 10.3907 6.81303 10.0493 7.67836 9.61984C8.91819 8.99167 9.74836 8.45767 10.1689 8.01784C10.5894 7.57817 10.7996 7.08909 10.7996 6.55059C10.7996 5.79675 10.5079 5.2 9.92461 4.76034C9.34128 4.3205 8.59961 4.10059 7.69961 4.10059C7.08044 4.10059 6.47053 4.2035 5.86986 4.40934C5.26919 4.615 4.84319 4.88842 4.59186 5.22959C4.48686 5.37825 4.43786 5.53975 4.44486 5.71409C4.45186 5.88842 4.52978 6.03134 4.67861 6.14284C4.81061 6.24167 4.97053 6.28334 5.15836 6.26784C5.34619 6.2525 5.49261 6.18392 5.59761 6.06209C5.83361 5.82625 6.14069 5.657 6.51886 5.55434C6.89703 5.45184 7.29061 5.40059 7.69961 5.40059C8.26761 5.40059 8.70961 5.51209 9.02561 5.73509C9.34161 5.95825 9.49961 6.23009 9.49961 6.55059Z" fill="#5C5C5C"/>
</g>
</svg>
