<svg width="24" height="24" viewBox="0 0 24 24" fill="none" xmlns="http://www.w3.org/2000/svg">
<mask id="mask0_4408_49251" style="mask-type:alpha" maskUnits="userSpaceOnUse" x="0" y="0" width="24" height="24">
<rect width="24" height="24" fill="#D9D9D9"/>
</mask>
<g mask="url(#mask0_4408_49251)">
<path d="M5.95608 19.9006C5.77208 19.9006 5.61658 19.8388 5.48958 19.7151C5.36241 19.5914 5.29883 19.4383 5.29883 19.2556C5.29883 19.0728 5.36108 18.9179 5.48558 18.7911C5.61008 18.6641 5.76433 18.6006 5.94833 18.6006H18.0416C18.2256 18.6006 18.3811 18.6624 18.5081 18.7861C18.6352 18.9098 18.6988 19.0629 18.6988 19.2456C18.6988 19.4284 18.6366 19.5833 18.5121 19.7101C18.3876 19.8371 18.2333 19.9006 18.0493 19.9006H5.95608ZM8.46608 16.4158C7.58158 16.4158 6.83258 16.1139 6.21908 15.5101C5.60558 14.9063 5.29883 14.1685 5.29883 13.2968V5.62184C5.29883 5.20017 5.44699 4.84125 5.74333 4.54509C6.03949 4.24875 6.39841 4.10059 6.82008 4.10059H19.4526C19.9052 4.10059 20.2928 4.25759 20.6153 4.57159C20.9377 4.88575 21.0988 5.26784 21.0988 5.71784V8.93334C21.0988 9.3835 20.9377 9.76558 20.6153 10.0796C20.2928 10.3936 19.9052 10.5506 19.4526 10.5506H17.6526V13.2968C17.6526 14.1685 17.3459 14.9063 16.7326 15.5101C16.1191 16.1139 15.37 16.4158 14.4853 16.4158H8.46608ZM17.6526 9.25059H19.4526C19.5487 9.25059 19.6305 9.22017 19.6978 9.15934C19.7652 9.09834 19.7988 9.023 19.7988 8.93334V5.71784C19.7988 5.62817 19.7652 5.55284 19.6978 5.49184C19.6305 5.431 19.5487 5.40059 19.4526 5.40059H17.6526V9.25059ZM14.4853 15.1161C14.9988 15.1161 15.4384 14.9375 15.8041 14.5803C16.1697 14.2233 16.3526 13.7942 16.3526 13.2928V5.40059H10.7411V6.38534L12.2316 7.91409C12.2816 7.96409 12.3399 8.10575 12.4066 8.33909V11.0736C12.4066 11.2336 12.3466 11.3736 12.2266 11.4936C12.1066 11.6136 11.9666 11.6736 11.8066 11.6736H8.59108C8.43108 11.6736 8.29108 11.6136 8.17108 11.4936C8.05108 11.3736 7.99108 11.2336 7.99108 11.0736V8.32859C7.99108 8.30225 8.04941 8.16409 8.16608 7.91409L9.65658 6.38534V5.40059H6.59883V13.2928C6.59883 13.7942 6.78166 14.2233 7.14733 14.5803C7.51299 14.9375 7.95258 15.1161 8.46608 15.1161H14.4853Z" fill="#5C5C5C"/>
</g>
</svg>
