<svg width="24" height="24" viewBox="0 0 24 24" fill="none" xmlns="http://www.w3.org/2000/svg">
<mask id="mask0_4408_49279" style="mask-type:alpha" maskUnits="userSpaceOnUse" x="0" y="0" width="24" height="24">
<rect width="24" height="24" fill="#D9D9D9"/>
</mask>
<g mask="url(#mask0_4408_49279)">
<path d="M9.67651 19.9H5.39958C5.03922 19.9 4.73246 19.7735 4.47931 19.5203C4.22618 19.2672 4.09961 18.9604 4.09961 18.6001V14.3231C4.65089 14.2065 5.10538 13.9302 5.46306 13.4943C5.82074 13.0584 5.99958 12.5603 5.99958 12.0001C5.99958 11.4398 5.82074 10.9417 5.46306 10.5058C5.10538 10.07 4.65089 9.79367 4.09961 9.67699V5.40006C4.09961 5.0397 4.22618 4.73294 4.47931 4.47979C4.73246 4.22666 5.03922 4.10009 5.39958 4.10009H9.59958C9.68933 3.49754 9.95765 2.99819 10.4045 2.60204C10.8514 2.20589 11.3812 2.00781 11.994 2.00781C12.6067 2.00781 13.1384 2.20455 13.589 2.59804C14.0396 2.99152 14.3098 3.4922 14.3996 4.10009H18.5996C18.96 4.10009 19.2667 4.22666 19.5199 4.47979C19.773 4.73294 19.8996 5.0397 19.8996 5.40006V9.60006C20.5021 9.68981 21.0015 9.95813 21.3976 10.405C21.7938 10.8519 21.9918 11.3817 21.9918 11.9944C21.9918 12.6072 21.7951 13.1388 21.4016 13.5895C21.0081 14.0401 20.5074 14.3103 19.8996 14.4001V18.6001C19.8996 18.9604 19.773 19.2672 19.5199 19.5203C19.2667 19.7735 18.96 19.9 18.5996 19.9H14.3227C14.1996 19.3488 13.9243 18.8943 13.4967 18.5366C13.0692 18.1789 12.5712 18.0001 12.0025 18.0001C11.4339 18.0001 10.9348 18.1789 10.5054 18.5366C10.0759 18.8943 9.79959 19.3488 9.67651 19.9ZM5.39958 18.6001H8.78616C9.06179 18.068 9.47333 17.6184 10.0208 17.2511C10.5682 16.8837 11.2278 16.7001 11.9996 16.7001C12.7714 16.7001 13.431 16.8837 13.9784 17.2511C14.5258 17.6184 14.9374 18.068 15.213 18.6001H18.5996V13.1578H19.6303C19.9634 13.1193 20.2236 12.9856 20.4109 12.7566C20.5982 12.5277 20.6919 12.2755 20.6919 12.0001C20.6919 11.7247 20.5982 11.4725 20.4109 11.2435C20.2236 11.0145 19.9634 10.8808 19.6303 10.8423H18.5996V5.40006H13.1573V4.36934C13.1188 4.03625 12.9851 3.77605 12.7562 3.58874C12.5272 3.40144 12.275 3.30779 11.9996 3.30779C11.7242 3.30779 11.472 3.40144 11.243 3.58874C11.014 3.77605 10.8803 4.03625 10.8419 4.36934V5.40006H5.39958V8.73856C6.00855 9.05266 6.47745 9.50586 6.80628 10.0982C7.13513 10.6905 7.29956 11.3244 7.29956 12.0001C7.29956 12.7022 7.13513 13.3486 6.80628 13.9391C6.47745 14.5297 6.00855 14.9705 5.39958 15.2616V18.6001Z" fill="#5C5C5C"/>
</g>
</svg>
