<svg width="24" height="24" viewBox="0 0 24 24" fill="none" xmlns="http://www.w3.org/2000/svg">
<mask id="mask0_4477_37229" style="mask-type:alpha" maskUnits="userSpaceOnUse" x="0" y="0" width="24" height="24">
<rect width="24" height="24" fill="#D9D9D9"/>
</mask>
<g mask="url(#mask0_4477_37229)">
<path d="M3.49219 9.2959L6.53064 4.09208C6.60755 3.96131 6.70891 3.86323 6.83471 3.79785C6.96051 3.73247 7.08872 3.69978 7.21934 3.69978C7.34994 3.69978 7.47806 3.73247 7.60371 3.79785C7.72935 3.86323 7.83062 3.96131 7.90754 4.09208L10.946 9.2959C11.0293 9.4311 11.071 9.57047 11.071 9.714C11.071 9.85755 11.0325 9.98933 10.9556 10.1094C10.8806 10.2283 10.7882 10.325 10.6782 10.3995C10.5683 10.474 10.4288 10.5113 10.2599 10.5113H4.17829C4.00935 10.5113 3.86991 10.474 3.75996 10.3995C3.65001 10.325 3.55755 10.2283 3.48259 10.1094C3.40565 9.98933 3.36719 9.85755 3.36719 9.714C3.36719 9.57047 3.40885 9.4311 3.49219 9.2959ZM7.22871 20.1594C6.28641 20.1594 5.4909 19.833 4.84219 19.1803C4.19347 18.5276 3.86911 17.7373 3.86911 16.8092C3.86911 15.867 4.19347 15.0699 4.84219 14.418C5.4909 13.7661 6.28641 13.4402 7.22871 13.4402C8.17101 13.4402 8.96652 13.7645 9.61524 14.4132C10.264 15.0619 10.5883 15.8575 10.5883 16.7998C10.5883 17.7421 10.264 18.5376 9.61524 19.1863C8.96652 19.835 8.17101 20.1594 7.22871 20.1594ZM7.23401 18.8594C7.80741 18.8594 8.29315 18.6586 8.69121 18.257C9.0893 17.8553 9.28834 17.3678 9.28834 16.7945C9.28834 16.2211 9.08753 15.7353 8.68591 15.3372C8.2843 14.9392 7.7968 14.7401 7.22341 14.7401C6.65001 14.7401 6.16427 14.9409 5.76619 15.3426C5.36812 15.7442 5.16909 16.2317 5.16909 16.8051C5.16909 17.3785 5.3699 17.8642 5.77151 18.2623C6.17313 18.6603 6.66063 18.8594 7.23401 18.8594ZM5.07291 9.2113H9.37489L7.21909 5.46703L5.07291 9.2113ZM13.4595 19.3565V14.2511C13.4595 14.0236 13.5364 13.8316 13.6903 13.675C13.8442 13.5184 14.0349 13.4402 14.2623 13.4402H19.3678C19.5953 13.4402 19.7873 13.5171 19.9438 13.671C20.1004 13.8248 20.1787 14.0155 20.1787 14.243V19.3485C20.1787 19.5759 20.1018 19.7679 19.9479 19.9245C19.794 20.0811 19.6033 20.1594 19.3759 20.1594H14.2704C14.0429 20.1594 13.8509 20.0824 13.6944 19.9285C13.5378 19.7747 13.4595 19.584 13.4595 19.3565ZM14.7595 18.8594H18.8787V14.7401H14.7595V18.8594ZM16.3114 10.1036L15.2672 9.24013C14.3582 8.49143 13.6944 7.86419 13.2759 7.35843C12.8573 6.85264 12.648 6.27872 12.648 5.63665C12.648 5.0159 12.8476 4.49175 13.247 4.0642C13.6464 3.63663 14.1717 3.42285 14.8229 3.42285C15.2228 3.42285 15.5824 3.50715 15.9017 3.67575C16.221 3.84433 16.5268 4.11837 16.8191 4.49785C17.1114 4.12478 17.4245 3.85235 17.7585 3.68055C18.0925 3.50875 18.4533 3.42285 18.8408 3.42285C19.4726 3.42285 19.9888 3.63977 20.3894 4.0736C20.7899 4.50743 20.9902 5.03924 20.9902 5.669C20.9902 6.30234 20.7851 6.86034 20.3748 7.34303C19.9646 7.82573 19.305 8.44976 18.396 9.21513L17.3268 10.1036C17.1847 10.2177 17.0168 10.2747 16.8231 10.2747C16.6294 10.2747 16.4588 10.2177 16.3114 10.1036ZM16.8191 8.77478C17.9332 7.87606 18.6902 7.21228 19.0903 6.78343C19.4903 6.35458 19.6903 5.96515 19.6903 5.61515C19.6903 5.38054 19.6044 5.17316 19.4326 4.99303C19.2608 4.81289 19.0629 4.72283 18.8391 4.72283C18.6771 4.72283 18.5262 4.76578 18.3864 4.85168C18.2466 4.93758 18.103 5.06258 17.9556 5.22668L16.8191 6.28243L15.7076 5.22668C15.5371 5.05616 15.3821 4.92955 15.2428 4.84685C15.1034 4.76417 14.9577 4.72283 14.8056 4.72283C14.571 4.72283 14.3694 4.80808 14.2008 4.9786C14.0322 5.14912 13.9479 5.35488 13.9479 5.5959C13.9479 5.9754 14.1563 6.38374 14.5729 6.82093C14.9896 7.25811 15.7383 7.90939 16.8191 8.77478Z" fill="#5C5C5C"/>
</g>
</svg>
