<svg width="24" height="24" viewBox="0 0 24 24" fill="none" xmlns="http://www.w3.org/2000/svg">
<mask id="mask0_5007_22612" style="mask-type:alpha" maskUnits="userSpaceOnUse" x="0" y="0" width="24" height="24">
<rect width="24" height="24" fill="#D9D9D9"/>
</mask>
<g mask="url(#mask0_5007_22612)">
<path d="M9.87464 19.9963C9.14259 19.9963 8.5224 19.7572 8.01407 19.279C7.50575 18.8008 7.22274 18.2008 7.16504 17.479C6.29838 17.3726 5.57723 16.9951 5.00159 16.3464C4.42596 15.6976 4.13814 14.9282 4.13814 14.0381C4.13814 13.727 4.17243 13.403 4.24102 13.066C4.30962 12.7291 4.42917 12.4283 4.59967 12.1637C4.41378 11.8856 4.27437 11.5844 4.18142 11.26C4.08847 10.9357 4.04199 10.5995 4.04199 10.2514C4.04199 9.36895 4.33269 8.60582 4.91409 7.96204C5.49551 7.31827 6.23557 6.93934 7.13427 6.82524C7.12787 6.79961 7.12467 6.77396 7.12467 6.74831V6.66176C7.13877 5.90665 7.41377 5.27171 7.94967 4.75696C8.48557 4.24223 9.12744 3.98486 9.87529 3.98486C10.3005 3.98486 10.6884 4.06627 11.0391 4.22909C11.3897 4.39191 11.7137 4.63742 12.0111 4.96564C12.306 4.63742 12.6184 4.39191 12.9483 4.22909C13.2782 4.06627 13.6601 3.98486 14.094 3.98486C14.8374 3.98486 15.479 4.24544 16.0188 4.76659C16.5586 5.28774 16.8355 5.92267 16.8496 6.67139V6.75794C16.8496 6.78357 16.8464 6.80921 16.84 6.83486C17.7387 6.9323 18.4829 7.30465 19.0727 7.95194C19.6624 8.59922 19.9573 9.36852 19.9573 10.2598C19.9573 10.6179 19.9051 10.9596 19.8006 11.2851C19.6961 11.6106 19.5509 11.9118 19.365 12.1887C19.5522 12.5028 19.6817 12.8159 19.7534 13.128C19.8252 13.4402 19.8611 13.7477 19.8611 14.0507C19.8611 14.9324 19.5708 15.7034 18.99 16.3637C18.4092 17.0239 17.6823 17.3957 16.8092 17.479C16.7515 18.2008 16.4685 18.8008 15.9602 19.279C15.4519 19.7572 14.8295 19.9963 14.0929 19.9963C13.6619 19.9963 13.2809 19.9175 12.9499 19.7598C12.619 19.6021 12.3022 19.356 11.9996 19.0213C11.7035 19.3393 11.3847 19.5813 11.0432 19.7473C10.7017 19.9133 10.3122 19.9963 9.87464 19.9963ZM12.6496 6.75241V17.2538C12.6496 17.6522 12.7902 17.9964 13.0713 18.2864C13.3525 18.5764 13.6966 18.7214 14.1038 18.7214C14.5049 18.7214 14.8362 18.5887 15.0977 18.3233C15.3593 18.0579 15.5016 17.7265 15.5247 17.3291C15.1375 17.2406 14.7779 17.0904 14.4459 16.8786C14.114 16.6668 13.828 16.3938 13.5881 16.0598C13.4766 15.9095 13.4366 15.7498 13.4681 15.5805C13.4997 15.4112 13.5912 15.2729 13.7429 15.1656C13.8935 15.0541 14.0565 15.0119 14.2318 15.039C14.4072 15.0662 14.5496 15.1558 14.6592 15.3079C14.8586 15.5926 15.1123 15.8106 15.4204 15.9618C15.7285 16.1131 16.0616 16.1887 16.4198 16.1887C17.0243 16.1887 17.5323 15.9829 17.9439 15.5714C18.3554 15.1598 18.5612 14.6489 18.5612 14.0387C18.5612 13.8793 18.5448 13.7282 18.5121 13.5855C18.4794 13.4427 18.4368 13.3021 18.3842 13.1637C18.1193 13.3393 17.8266 13.4742 17.506 13.5685C17.1854 13.6627 16.8526 13.7098 16.5073 13.7098C16.3232 13.7098 16.1688 13.648 16.0442 13.5244C15.9196 13.4007 15.8573 13.2475 15.8573 13.0648C15.8573 12.882 15.9196 12.7272 16.0442 12.6002C16.1688 12.4733 16.3232 12.4099 16.5073 12.4099C17.1176 12.4099 17.6285 12.2041 18.04 11.7925C18.4516 11.381 18.6573 10.874 18.6573 10.2717C18.6573 9.67928 18.4548 9.17665 18.0496 8.76376C17.6445 8.35088 17.1286 8.1329 16.502 8.10981C16.3274 8.39956 16.1173 8.65437 15.8717 8.87424C15.6262 9.09412 15.34 9.2624 15.0131 9.37906C14.8503 9.43675 14.688 9.42836 14.5262 9.35389C14.3644 9.27942 14.2523 9.15708 14.19 8.98686C14.1259 8.81878 14.1336 8.65335 14.2131 8.49056C14.2926 8.32778 14.4207 8.21434 14.5975 8.15024C14.8746 8.04767 15.1025 7.8707 15.2814 7.61931C15.4602 7.36793 15.5497 7.07996 15.5497 6.75541C15.5497 6.35451 15.4094 6.00919 15.129 5.71944C14.8486 5.42969 14.5053 5.28481 14.0991 5.28481C13.6929 5.28481 13.3498 5.42981 13.0697 5.71981C12.7897 6.00983 12.6496 6.35403 12.6496 6.75241ZM11.3497 17.2464V6.75209C11.3497 6.35392 11.2046 6.00983 10.9145 5.71981C10.6244 5.42981 10.2767 5.28481 9.87129 5.28481C9.46593 5.28481 9.12347 5.42799 8.84392 5.71434C8.56438 6.00067 8.42462 6.35119 8.42462 6.76589C8.42462 7.08622 8.51564 7.37139 8.69769 7.62139C8.87976 7.87139 9.10933 8.04767 9.38642 8.15024C9.55677 8.21434 9.68328 8.32575 9.76597 8.48446C9.84867 8.64318 9.85851 8.80682 9.79549 8.97539C9.73656 9.13959 9.62508 9.26074 9.46107 9.33884C9.29703 9.41692 9.13041 9.42712 8.96119 9.36944C8.63426 9.25277 8.34804 9.08611 8.10254 8.86944C7.85703 8.65277 7.64688 8.39956 7.47209 8.10981C6.86226 8.1329 6.35478 8.35021 5.94964 8.76174C5.54451 9.17329 5.34194 9.67382 5.34194 10.2633C5.34194 10.8713 5.54772 11.381 5.95927 11.7925C6.3708 12.2041 6.8817 12.4099 7.49197 12.4099C7.67613 12.4099 7.8305 12.4717 7.95507 12.5953C8.07965 12.7189 8.14194 12.8721 8.14194 13.0549C8.14194 13.2377 8.07965 13.3925 7.95507 13.5194C7.8305 13.6464 7.67613 13.7098 7.49197 13.7098C7.14735 13.7098 6.81504 13.6585 6.49504 13.556C6.17504 13.4534 5.88171 13.3143 5.61504 13.1387C5.56248 13.2771 5.51984 13.4233 5.48714 13.5771C5.45446 13.731 5.43812 13.8848 5.43812 14.0387C5.43812 14.6489 5.64388 15.1598 6.05542 15.5714C6.46697 15.9829 6.97498 16.1887 7.57944 16.1887C7.93954 16.1887 8.27263 16.1125 8.57872 15.9602C8.88478 15.8079 9.13857 15.5905 9.34007 15.3079C9.45362 15.1435 9.60123 15.0467 9.78292 15.0173C9.96458 14.988 10.1266 15.0275 10.2689 15.1358C10.4112 15.2441 10.4984 15.3897 10.5304 15.5723C10.5625 15.755 10.5248 15.92 10.4174 16.0674C10.1812 16.3906 9.89516 16.6621 9.55924 16.8819C9.22334 17.1018 8.85347 17.256 8.44962 17.3444C8.4727 17.7419 8.61501 18.0666 8.87654 18.3185C9.13809 18.5704 9.46703 18.6964 9.86337 18.6964C10.2795 18.6964 10.6313 18.5562 10.9186 18.2759C11.206 17.9955 11.3497 17.6524 11.3497 17.2464Z" fill="#5C5C5C"/>
</g>
</svg>
