<svg width="24" height="24" viewBox="0 0 24 24" fill="none" xmlns="http://www.w3.org/2000/svg">
<mask id="mask0_4477_32166" style="mask-type:alpha" maskUnits="userSpaceOnUse" x="0" y="0" width="24" height="24">
<rect width="24" height="24" fill="#D9D9D9"/>
</mask>
<g mask="url(#mask0_4477_32166)">
<path d="M12.0089 21.1003C10.7571 21.1003 9.57807 20.8635 8.47194 20.3898C7.36579 19.9162 6.39761 19.2644 5.56739 18.4346C4.73716 17.6047 4.0851 16.6374 3.61122 15.5324C3.13733 14.4275 2.90039 13.2469 2.90039 11.9906C2.90039 10.7343 3.13722 9.55724 3.61089 8.45944C4.08456 7.36162 4.73631 6.39761 5.56614 5.56739C6.39599 4.73716 7.36338 4.0851 8.46832 3.61122C9.57325 3.13733 10.7539 2.90039 12.0101 2.90039C13.2664 2.90039 14.4435 3.13723 15.5413 3.61089C16.6391 4.08456 17.6031 4.73631 18.4333 5.56614C19.2636 6.39599 19.9156 7.36143 20.3895 8.46247C20.8634 9.5635 21.1003 10.7399 21.1003 11.9918C21.1003 13.2437 20.8635 14.4227 20.3898 15.5288C19.9162 16.6349 19.2644 17.6031 18.4346 18.4333C17.6047 19.2636 16.6393 19.9156 15.5383 20.3895C14.4372 20.8634 13.2608 21.1003 12.0089 21.1003ZM12.0089 19.8004C12.9615 19.8004 13.8647 19.6343 14.7182 19.3023C15.5717 18.9702 16.3382 18.5151 17.0177 17.9369L15.3965 16.2907C14.9284 16.6725 14.4045 16.9696 13.8249 17.1819C13.2453 17.3942 12.6371 17.5003 12.0004 17.5003C10.4726 17.5003 9.174 16.9658 8.10457 15.8968C7.03512 14.8278 6.50039 13.5298 6.50039 12.0026C6.50039 10.4755 7.03489 9.17667 8.10389 8.10617C9.17289 7.03565 10.471 6.50039 11.9981 6.50039C13.5252 6.50039 14.8241 7.03512 15.8946 8.10457C16.9651 9.174 17.5003 10.4726 17.5003 12.0004C17.5003 12.6414 17.3962 13.247 17.1878 13.8173C16.9795 14.3876 16.6837 14.9108 16.3003 15.3869L17.9465 17.0081C18.5247 16.3265 18.9782 15.5618 19.3071 14.7142C19.6359 13.8665 19.8004 12.9648 19.8004 12.0089C19.8004 9.829 19.042 7.98262 17.5254 6.46972C16.0087 4.95682 14.167 4.20037 12.0004 4.20037C9.8337 4.20037 7.99203 4.9587 6.47537 6.47537C4.9587 7.99203 4.20037 9.8337 4.20037 12.0004C4.20037 14.167 4.95682 16.0087 6.46972 17.5254C7.98262 19.042 9.829 19.8004 12.0089 19.8004ZM12.0004 16.2004C12.4619 16.2004 12.8994 16.1276 13.3129 15.9821C13.7263 15.8366 14.1093 15.6363 14.4619 15.3811L12.3254 13.2446C12.2715 13.2694 12.2177 13.2848 12.1639 13.291C12.11 13.2972 12.0562 13.3003 12.0024 13.3003C11.6471 13.3003 11.3412 13.1716 11.0849 12.9142C10.8286 12.6568 10.7004 12.3522 10.7004 12.0004C10.7004 11.6464 10.8291 11.3413 11.0865 11.0849C11.3438 10.8286 11.6502 10.7004 12.0057 10.7004C12.3611 10.7004 12.6657 10.8277 12.9196 11.0822C13.1734 11.3367 13.3003 11.639 13.3003 11.9891C13.3003 12.0528 13.2931 12.1061 13.2785 12.149C13.264 12.192 13.2527 12.2444 13.2446 12.3061L15.3907 14.4523C15.6444 14.1038 15.8428 13.7236 15.9858 13.3116C16.1289 12.8997 16.2004 12.4626 16.2004 12.0004C16.2004 10.8337 15.792 9.84203 14.9754 9.02537C14.1587 8.2087 13.167 7.80037 12.0004 7.80037C10.8337 7.80037 9.84203 8.2087 9.02537 9.02537C8.2087 9.84203 7.80037 10.8337 7.80037 12.0004C7.80037 13.167 8.2087 14.1587 9.02537 14.9754C9.84203 15.792 10.8337 16.2004 12.0004 16.2004Z" fill="#5C5C5C"/>
</g>
</svg>
