<svg width="24" height="24" viewBox="0 0 24 24" fill="none" xmlns="http://www.w3.org/2000/svg">
<mask id="mask0_4408_49216" style="mask-type:alpha" maskUnits="userSpaceOnUse" x="0" y="0" width="24" height="24">
<rect width="24" height="24" fill="#D9D9D9"/>
</mask>
<g mask="url(#mask0_4408_49216)">
<path d="M4.50619 18.7008C4.05602 18.7008 3.67552 18.5453 3.36469 18.2343C3.05385 17.9233 2.89844 17.5425 2.89844 17.092V6.90153C2.89844 6.45103 3.05385 6.07161 3.36469 5.76328C3.67552 5.45495 4.05602 5.30078 4.50619 5.30078H19.4907C19.9409 5.30078 20.3214 5.45628 20.6322 5.76728C20.943 6.07828 21.0984 6.45903 21.0984 6.90953V17.1C21.0984 17.5505 20.943 17.9299 20.6322 18.2383C20.3214 18.5466 19.9409 18.7008 19.4907 18.7008H4.50619ZM4.50619 17.4008H19.4907C19.5677 17.4008 19.6382 17.3687 19.7022 17.3045C19.7664 17.2405 19.7984 17.17 19.7984 17.093V8.40078H4.19844V17.093C4.19844 17.17 4.23052 17.2405 4.29469 17.3045C4.35869 17.3687 4.42919 17.4008 4.50619 17.4008ZM8.60419 12.9008L7.03119 11.3278C6.89919 11.1956 6.82994 11.0408 6.82344 10.8633C6.8171 10.6858 6.8831 10.527 7.02144 10.387C7.1536 10.2565 7.30844 10.1944 7.48594 10.2008C7.66344 10.2073 7.81827 10.2765 7.95044 10.4085L9.88494 12.343C10.0491 12.501 10.1312 12.6854 10.1312 12.8963C10.1312 13.1069 10.0491 13.2944 9.88494 13.4585L7.94069 15.4028C7.80219 15.5411 7.6516 15.6029 7.48894 15.5883C7.3261 15.5734 7.1786 15.5 7.04644 15.368C6.9081 15.2295 6.83894 15.0779 6.83894 14.9133C6.83894 14.7486 6.9081 14.597 7.04644 14.4585L8.60419 12.9008ZM12.8984 15.9508C12.7139 15.9508 12.5595 15.889 12.4352 15.7655C12.3107 15.6422 12.2484 15.489 12.2484 15.306C12.2484 15.123 12.3107 14.9681 12.4352 14.8413C12.5595 14.7143 12.7139 14.6508 12.8984 14.6508H17.0984C17.2829 14.6508 17.4374 14.7125 17.5617 14.836C17.6862 14.9594 17.7484 15.1125 17.7484 15.2955C17.7484 15.4785 17.6862 15.6334 17.5617 15.7603C17.4374 15.8873 17.2829 15.9508 17.0984 15.9508H12.8984Z" fill="#5C5C5C"/>
</g>
</svg>
