<svg width="18" height="22" viewBox="0 0 18 22" fill="none" xmlns="http://www.w3.org/2000/svg">
<path d="M14.4016 11.2712C14.4121 10.4589 14.6278 9.66241 15.0288 8.95587C15.4298 8.24933 16.0031 7.65571 16.6951 7.23022C16.2555 6.60232 15.6755 6.08558 15.0012 5.72104C14.3269 5.35651 13.5769 5.15422 12.8107 5.13025C11.1764 4.95869 9.59196 6.10821 8.75912 6.10821C7.91017 6.10821 6.62791 5.14728 5.24711 5.17569C4.35398 5.20454 3.48355 5.46426 2.72063 5.92953C1.95772 6.39481 1.32834 7.04977 0.893809 7.83061C-0.988426 11.0895 0.415555 15.8789 2.21861 18.5132C3.12072 19.8031 4.17503 21.2439 5.55458 21.1929C6.90455 21.1369 7.40874 20.332 9.03825 20.332C10.6527 20.332 11.1257 21.1929 12.5332 21.1604C13.9818 21.1369 14.8945 19.8647 15.765 18.5626C16.4131 17.6435 16.9119 16.6277 17.2428 15.5528C16.4012 15.1968 15.683 14.601 15.1778 13.8397C14.6725 13.0783 14.4026 12.185 14.4016 11.2712Z" fill="black"/>
<path d="M11.743 3.39728C12.5329 2.44913 12.922 1.23043 12.8278 0C11.6211 0.126737 10.5065 0.703449 9.70596 1.61523C9.31458 2.06065 9.01481 2.57885 8.82382 3.1402C8.63282 3.70155 8.55433 4.29503 8.59284 4.88673C9.19639 4.89294 9.79349 4.76212 10.3392 4.50413C10.8848 4.24613 11.3648 3.86768 11.743 3.39728V3.39728Z" fill="black"/>
</svg>
