<svg width="99" height="24" viewBox="0 0 99 24" fill="none" xmlns="http://www.w3.org/2000/svg">
<path d="M29.6037 3.05611C29.6037 3.79235 29.3857 4.37868 28.949 4.81604C28.453 5.33611 27.8066 5.59631 27.0119 5.59631C26.2509 5.59631 25.6038 5.33268 25.0717 4.80471C24.5386 4.27709 24.2726 3.62284 24.2726 2.84222C24.2726 2.06124 24.5386 1.40734 25.0717 0.879372C25.6038 0.351752 26.2509 0.0877666 27.0119 0.0877666C27.3895 0.0877666 27.751 0.161583 28.0943 0.308867C28.4375 0.456502 28.7129 0.652471 28.9188 0.897914L28.4554 1.36165C28.1063 0.944578 27.6257 0.736218 27.0119 0.736218C26.4568 0.736218 25.9769 0.931221 25.5719 1.32149C25.1668 1.71219 24.9643 2.21881 24.9643 2.84222C24.9643 3.46562 25.1668 3.97224 25.5719 4.36294C25.9769 4.75321 26.4568 4.94821 27.0119 4.94821C27.6007 4.94821 28.0916 4.75216 28.4845 4.35952C28.7397 4.1037 28.8872 3.74815 28.9267 3.29154H27.0119V2.6582H29.5669C29.5916 2.7959 29.6037 2.92807 29.6037 3.05611Z" fill="black"/>
<path d="M29.6036 3.05624H29.5157C29.515 3.7757 29.3049 4.33452 28.8868 4.75405L28.8858 4.75475L28.8855 4.75545C28.4052 5.25759 27.788 5.50751 27.0118 5.50857C26.2711 5.50751 25.6511 5.25487 25.1334 4.74271C24.6169 4.2295 24.3614 3.60302 24.3604 2.84235C24.3614 2.08133 24.6169 1.4552 25.1334 0.942339C25.6511 0.429835 26.2711 0.176835 27.0118 0.17578C27.3781 0.17578 27.7269 0.247224 28.0595 0.389674C28.3925 0.533179 28.6555 0.721237 28.8515 0.954729L28.9188 0.898049L28.8566 0.835919L28.3932 1.3L28.4553 1.36178L28.523 1.30554C28.1577 0.867818 27.6449 0.647158 27.0118 0.648476C26.4362 0.647773 25.9299 0.853406 25.511 1.25852C25.0882 1.66496 24.8757 2.20005 24.8764 2.84235C24.8757 3.48465 25.0882 4.01974 25.511 4.42618C25.9299 4.83129 26.4362 5.03693 27.0118 5.03622C27.6201 5.03728 28.1385 4.83094 28.5466 4.42178C28.8192 4.14848 28.9737 3.7699 29.0142 3.29923L29.0224 3.20379H27.0997V2.74621H29.5669V2.65833L29.4803 2.6738C29.5044 2.80702 29.5157 2.93365 29.5157 3.05624H29.6036H29.6915C29.6915 2.92267 29.6791 2.7854 29.6533 2.6426L29.6403 2.57046H26.9239V3.29167V3.37955H28.9266V3.29167L28.8391 3.28411C28.8003 3.72632 28.6595 4.05928 28.4223 4.29752C28.0447 4.67373 27.5814 4.85941 27.0118 4.86047C26.4773 4.85977 26.0239 4.67575 25.6329 4.29989C25.2457 3.92536 25.0531 3.44721 25.0521 2.84235C25.0531 2.23749 25.2457 1.75934 25.6329 1.38481C26.0239 1.00895 26.4773 0.824934 27.0118 0.824232C27.606 0.825638 28.0548 1.02196 28.3881 1.41846L28.4499 1.49193L28.9809 0.960179L29.0378 0.903233L28.986 0.84172C28.7701 0.584325 28.4825 0.380008 28.1288 0.22833C27.7746 0.0762134 27.4008 2.38419e-05 27.0118 2.38419e-05C26.2306 -0.000679016 25.5564 0.273939 25.0095 0.817377C24.4606 1.35976 24.184 2.04152 24.1847 2.84235C24.184 3.64283 24.4606 4.32494 25.0099 4.86767C25.5564 5.41076 26.2306 5.68503 27.0118 5.68432C27.8254 5.68503 28.5003 5.4148 29.0124 4.8769L28.9489 4.81618L29.011 4.87831C29.4662 4.42345 29.6921 3.80901 29.6915 3.05624H29.6036Z" fill="black"/>
<path d="M33.6542 0.853703H31.253V2.52549H33.4184V3.1591H31.253V4.83089H33.6542V5.47864H30.5761V0.205954H33.6542V0.853703Z" fill="black"/>
<path d="M33.6542 0.853717V0.76584H31.1651V2.61339H33.3305V3.07097L31.1651 3.07123V4.91878H33.5663V5.39077H30.664V0.293846H33.5663V0.853717H33.6542V0.76584V0.853717H33.7421V0.205968V0.11809H30.4882V5.56653H33.7421V4.8309V4.74302H31.3409V3.24699H33.5063V2.52551V2.43763H31.3409V0.941596H33.7421V0.853717H33.6542Z" fill="black"/>
<path d="M36.5113 5.47864H35.8333V0.853703H34.3607V0.205954H37.984V0.853703H36.5113V5.47864Z" fill="black"/>
<path d="M36.5113 5.47865V5.39077H35.9212V0.76584H34.4485V0.293846H37.8961V0.76584H36.4234V5.47865H36.5113V5.39077V5.47865H36.5992V0.941596H38.0718V0.205968V0.11809H34.2728V0.853717V0.941596H35.7454V5.56653H36.5113H36.5992V5.47865H36.5113Z" fill="black"/>
<path d="M40.6055 5.47864V0.205954H41.2828V5.47864H40.6055Z" fill="black"/>
<path d="M40.6055 5.47865H40.6934V0.293846H41.1949V5.39077H40.6055V5.47865H40.6934H40.6055V5.56653H41.2828H41.3707V0.11809H40.6055H40.5176V5.56653H40.6055V5.47865Z" fill="black"/>
<path d="M44.2881 5.47864H43.6101V0.853703H42.1376V0.205954H45.7608V0.853703H44.2881V5.47864Z" fill="black"/>
<path d="M44.2882 5.47865V5.39077H43.6981V0.76584H42.2255V0.293846H45.673V0.76584H44.2003V5.47865H44.2882V5.39077V5.47865H44.376V0.941596H45.8487V0.205968V0.11809H42.0497V0.853717V0.941596H43.5223V5.56653H44.2882H44.376V5.47865H44.2882Z" fill="black"/>
<path d="M49.2539 4.35574C49.6442 4.75084 50.1217 4.94821 50.6864 4.94821C51.2511 4.94821 51.7289 4.75084 52.1186 4.35574C52.5092 3.96064 52.7049 3.4556 52.7049 2.84222C52.7049 2.22883 52.5092 1.72379 52.1186 1.32869C51.7289 0.933593 51.2511 0.736218 50.6864 0.736218C50.1217 0.736218 49.6442 0.933593 49.2539 1.32869C48.8643 1.72379 48.6687 2.22883 48.6687 2.84222C48.6687 3.4556 48.8643 3.96064 49.2539 4.35574ZM52.6198 4.79715C52.1014 5.33022 51.4567 5.59631 50.6864 5.59631C49.9154 5.59631 49.2711 5.33022 48.7538 4.79715C48.2351 4.2647 47.977 3.61291 47.977 2.84222C47.977 2.07153 48.2351 1.41965 48.7538 0.88728C49.2711 0.354125 49.9154 0.0877666 50.6864 0.0877666C51.4526 0.0877666 52.0956 0.355531 52.6163 0.890708C53.1364 1.42589 53.3966 2.07636 53.3966 2.84222C53.3966 3.61291 53.137 4.2647 52.6198 4.79715Z" fill="black"/>
<path d="M49.254 4.35587L49.1915 4.41765C49.5963 4.82857 50.1012 5.03728 50.6865 5.03622C51.2714 5.03728 51.7771 4.82857 52.1811 4.41765C52.5885 4.00638 52.7934 3.47428 52.7928 2.84235C52.7934 2.21042 52.5885 1.67832 52.1811 1.26705C51.7771 0.856131 51.2714 0.64742 50.6865 0.648475C50.1012 0.64742 49.5963 0.856131 49.1915 1.26705C48.7851 1.67832 48.5798 2.21042 48.5808 2.84235C48.5798 3.47428 48.7851 4.00638 49.1915 4.41765L49.254 4.35587L49.3165 4.29409C48.9437 3.91472 48.7573 3.43755 48.7566 2.84235C48.7573 2.24715 48.9437 1.76997 49.3165 1.39061C49.6927 1.01132 50.142 0.825285 50.6865 0.824231C51.2305 0.825285 51.6809 1.01132 52.0562 1.39061C52.4296 1.76997 52.616 2.24715 52.6167 2.84235C52.616 3.43755 52.4296 3.91472 52.0562 4.29409C51.6809 4.67338 51.2305 4.85941 50.6865 4.86047C50.142 4.85941 49.6927 4.67338 49.3165 4.29409L49.254 4.35587ZM52.6198 4.79728L52.557 4.73621C52.0531 5.25249 51.4369 5.50751 50.6865 5.50857C49.9357 5.50751 49.3195 5.25249 48.8166 4.73621L48.8143 4.73348L48.8166 4.73621C48.3138 4.21817 48.0656 3.59344 48.0649 2.84235C48.0656 2.09126 48.3138 1.46653 48.8166 0.948491C49.3195 0.432207 49.9357 0.176834 50.6865 0.175779C51.432 0.176834 52.0468 0.433261 52.5535 0.952269C53.0581 1.47268 53.3077 2.09644 53.3088 2.84235C53.3077 3.59344 53.0588 4.21817 52.557 4.73621L52.6198 4.79728L52.683 4.85836C53.2157 4.31123 53.4851 3.63255 53.4845 2.84235C53.4851 2.05663 53.2146 1.37936 52.6795 0.829766C52.144 0.278068 51.4733 -0.000943661 50.6865 2.28882e-05C49.8956 -0.000943661 49.2228 0.27675 48.6907 0.826339V0.825987C48.1569 1.37347 47.8885 2.05215 47.8892 2.84235C47.8885 3.63255 48.1569 4.31123 48.6907 4.85871L48.6931 4.86117L48.6907 4.85836C49.2228 5.40795 49.8956 5.68503 50.6865 5.68432C51.477 5.68503 52.1498 5.40795 52.683 4.85836L52.6198 4.79728Z" fill="black"/>
<path d="M54.3475 5.47864V0.205954H55.172L57.7346 4.30775H57.7637L57.7346 3.29162V0.205954H58.4125V5.47864H57.7054L55.0244 1.17806H54.9952L55.0244 2.19455V5.47864H54.3475Z" fill="black"/>
<path d="M54.3475 5.47865H54.4353V0.293846H55.1232L57.6858 4.39564H57.7637H57.854L57.8224 3.29031V0.293846H58.3246V5.39077H57.7541L55.0732 1.0902H54.9952H54.905L54.9365 2.19597V5.39077H54.3475V5.47865H54.4353H54.3475V5.56653H55.0244H55.1123V2.19315L55.0831 1.1757L54.9952 1.17808V1.26595H55.0244V1.17808L54.9499 1.22483L57.6566 5.56653H58.4125H58.5004V0.11809H57.7345H57.6467V3.29268L57.6758 4.31014L57.7637 4.30776V4.21988H57.7345V4.30776L57.8091 4.2611L55.2207 0.11809H54.3475H54.2596V5.56653H54.3475V5.47865Z" fill="black"/>
<path d="M81.9065 20.4179H83.5463V9.43211H81.9065V20.4179ZM96.6762 13.3894L94.7965 18.1523H94.7402L92.7893 13.3894H91.023L93.9485 20.0465L92.2805 23.7494H93.9915L98.4997 13.3894H96.6762ZM87.3769 19.1701C86.8391 19.1701 86.0904 18.9017 86.0904 18.2371C86.0904 17.3892 87.0237 17.0641 87.8286 17.0641C88.5501 17.0641 88.8884 17.2196 89.327 17.4318C89.1995 18.4493 88.3234 19.1701 87.3769 19.1701ZM87.5747 13.1491C86.3874 13.1491 85.158 13.6722 84.6492 14.8312L86.1045 15.4387C86.4156 14.8312 86.9947 14.6331 87.6028 14.6331C88.4508 14.6331 89.3129 15.1422 89.327 16.0467V16.1596C89.0299 15.99 88.3946 15.7357 87.6168 15.7357C86.0482 15.7357 84.4506 16.5976 84.4506 18.2089C84.4506 19.6789 85.7371 20.6259 87.1783 20.6259C88.2812 20.6259 88.8884 20.1313 89.2707 19.5519H89.327V20.3997H90.9096V16.1877C90.9096 14.2376 89.4544 13.1491 87.5747 13.1491ZM77.4406 14.7268H75.1083V10.9611H77.4406C78.6665 10.9611 79.3625 11.9761 79.3625 12.8439C79.3625 13.6952 78.6665 14.7268 77.4406 14.7268ZM77.3984 9.43211H73.4694V20.4179H75.1083V16.2557H77.3984C79.2157 16.2557 81.0023 14.94 81.0023 12.8439C81.0023 10.7479 79.2157 9.43211 77.3984 9.43211ZM55.9728 19.1722C54.84 19.1722 53.8915 18.2237 53.8915 16.921C53.8915 15.6046 54.84 14.6417 55.9728 14.6417C57.0913 14.6417 57.969 15.6046 57.969 16.921C57.969 18.2237 57.0913 19.1722 55.9728 19.1722ZM57.8557 14.0046H57.799C57.4311 13.5658 56.7229 13.1694 55.8311 13.1694C53.9623 13.1694 52.2494 14.8116 52.2494 16.921C52.2494 19.0163 53.9623 20.6445 55.8311 20.6445C56.7229 20.6445 57.4311 20.248 57.799 19.7952H57.8557V20.3331C57.8557 21.7632 57.0913 22.5277 55.8596 22.5277C54.8544 22.5277 54.2315 21.8054 53.9763 21.1968L52.5467 21.7914C52.9572 22.7824 54.0474 24 55.8596 24C57.785 24 59.4131 22.8672 59.4131 20.1066V13.3959H57.8557V14.0046ZM60.5456 20.4179H62.1878V9.43176H60.5456V20.4179ZM64.6089 16.7937C64.5663 15.3495 65.7273 14.6135 66.5625 14.6135C67.2142 14.6135 67.7661 14.9389 67.9497 15.4065L64.6089 16.7937ZM69.7055 15.5479C69.3945 14.7123 68.4454 13.1694 66.5058 13.1694C64.5804 13.1694 62.9808 14.6842 62.9808 16.9069C62.9808 19.0023 64.5663 20.6445 66.6898 20.6445C68.4032 20.6445 69.3945 19.5968 69.8048 18.9881L68.5306 18.1385C68.1062 18.7616 67.5253 19.1722 66.6898 19.1722C65.8546 19.1722 65.2601 18.7898 64.8777 18.0397L69.8751 15.9725L69.7055 15.5479ZM29.8896 14.3162V15.9018H33.6837C33.5704 16.7936 33.2732 17.4448 32.8201 17.8979C32.2681 18.4502 31.4044 19.0589 29.8896 19.0589C27.5535 19.0589 25.7273 17.176 25.7273 14.84C25.7273 12.5041 27.5535 10.6209 29.8896 10.6209C31.1497 10.6209 32.0697 11.1166 32.7493 11.7537L33.8677 10.6353C32.9193 9.72905 31.6591 9.03534 29.8896 9.03534C26.6899 9.03534 24 11.6404 24 14.84C24 18.0397 26.6899 20.6445 29.8896 20.6445C31.6169 20.6445 32.9193 20.0784 33.9385 19.0163C34.9862 17.9687 35.3119 16.4964 35.3119 15.3073C35.3119 14.9389 35.2837 14.5994 35.2268 14.3162H29.8896ZM39.6255 19.1722C38.4927 19.1722 37.5157 18.2377 37.5157 16.9069C37.5157 15.562 38.4927 14.6417 39.6255 14.6417C40.7579 14.6417 41.7348 15.562 41.7348 16.9069C41.7348 18.2377 40.7579 19.1722 39.6255 19.1722ZM39.6255 13.1694C37.5583 13.1694 35.8735 14.7408 35.8735 16.9069C35.8735 19.0589 37.5583 20.6445 39.6255 20.6445C41.6923 20.6445 43.3771 19.0589 43.3771 16.9069C43.3771 14.7408 41.6923 13.1694 39.6255 13.1694ZM47.8098 19.1722C46.6774 19.1722 45.7003 18.2377 45.7003 16.9069C45.7003 15.562 46.6774 14.6417 47.8098 14.6417C48.9422 14.6417 49.9192 15.562 49.9192 16.9069C49.9192 18.2377 48.9422 19.1722 47.8098 19.1722ZM47.8098 13.1694C45.7426 13.1694 44.0582 14.7408 44.0582 16.9069C44.0582 19.0589 45.7426 20.6445 47.8098 20.6445C49.8767 20.6445 51.5615 19.0589 51.5615 16.9069C51.5615 14.7408 49.8767 13.1694 47.8098 13.1694Z" fill="black"/>
<path d="M10.655 12.2633C10.6546 12.208 10.6431 12.1534 10.6214 12.1026C10.5996 12.0519 10.568 12.0059 10.5283 11.9675L2.25417 3.95995C2.20356 3.91097 2.14135 3.87562 2.07337 3.8572C2.00539 3.83878 1.93385 3.83789 1.86543 3.85462C1.79702 3.87135 1.73396 3.90515 1.68215 3.95287C1.63034 4.00058 1.59147 4.06064 1.56917 4.12745C1.51215 4.29209 1.48231 4.4649 1.48083 4.63912V19.765C1.48083 20.0783 1.56917 20.3725 1.7425 20.6391C1.77645 20.691 1.82151 20.7347 1.87441 20.767C1.92731 20.7993 1.98674 20.8195 2.04838 20.826C2.11003 20.8325 2.17236 20.8253 2.23087 20.8048C2.28937 20.7843 2.34259 20.751 2.38667 20.7075L10.5325 12.5616C10.5715 12.5224 10.6024 12.4758 10.6235 12.4247C10.6445 12.3735 10.6552 12.3186 10.655 12.2633ZM11.1267 11.3875C11.205 11.4642 11.3104 11.5068 11.42 11.506C11.5296 11.5052 11.6345 11.4611 11.7117 11.3833L13.8158 9.27912C13.8613 9.23323 13.8954 9.17745 13.9157 9.11614C13.936 9.05483 13.9418 8.98966 13.9327 8.92573C13.9235 8.86181 13.8998 8.80086 13.8631 8.74767C13.8265 8.69447 13.7781 8.65048 13.7217 8.61912L3.85333 3.21495C3.76423 3.17069 3.66227 3.15962 3.56574 3.18376C3.46922 3.20789 3.38446 3.26563 3.32667 3.34662C3.26939 3.42807 3.24304 3.52728 3.25236 3.62641C3.26168 3.72555 3.30605 3.81811 3.3775 3.88745L11.1267 11.3875ZM17.6808 10.7866L15.2442 9.45162C15.165 9.40868 15.0741 9.39238 14.9849 9.40514C14.8958 9.4179 14.8131 9.45904 14.7492 9.52245L12.32 11.9516C12.281 11.9907 12.2502 12.0372 12.2293 12.0883C12.2084 12.1394 12.1979 12.1941 12.1984 12.2493C12.1989 12.3045 12.2103 12.3591 12.232 12.4098C12.2538 12.4606 12.2854 12.5065 12.325 12.545L14.7467 14.8891C14.8108 14.9506 14.8929 14.9901 14.9809 15.002C15.069 15.0138 15.1586 14.9973 15.2367 14.955L17.6808 13.6166C18.2058 13.3291 18.5192 12.8 18.5192 12.2016C18.5192 11.6033 18.2058 11.0741 17.6808 10.7866ZM11.7258 13.1258C11.6473 13.0499 11.542 13.0078 11.4327 13.0088C11.3235 13.0097 11.2189 13.0535 11.1417 13.1308L4.20833 20.0641C4.1347 20.1342 4.08938 20.229 4.08097 20.3303C4.07256 20.4316 4.10164 20.5325 4.1627 20.6138C4.22375 20.6951 4.31254 20.7512 4.4122 20.7714C4.51186 20.7916 4.61546 20.7744 4.70333 20.7233L13.7067 15.7933C13.7641 15.762 13.8133 15.7177 13.8503 15.6638C13.8873 15.61 13.9112 15.5482 13.9199 15.4834C13.9285 15.4186 13.9218 15.3527 13.9003 15.291C13.8787 15.2293 13.843 15.1736 13.7958 15.1283L11.7258 13.1258Z" fill="black"/>
</svg>
