<svg width="479" height="786" viewBox="0 0 479 786" fill="none" xmlns="http://www.w3.org/2000/svg">
<g clip-path="url(#clip0_627_415)">
<rect width="479" height="786" rx="8" fill="#C2272D"/>
<circle cx="326" cy="584" r="291" fill="#C2272D"/>
<circle cx="303" cy="559" r="291" fill="#CE3D2B"/>
<circle cx="280" cy="534" r="291" fill="#D75228"/>
<circle cx="257" cy="509" r="291" fill="#E16724"/>
<circle cx="234" cy="484" r="291" fill="#EC7D21"/>
<circle cx="211" cy="459" r="291" fill="#F8931F"/>
<circle cx="188" cy="434" r="291" fill="#F9A84C"/>
<circle cx="165" cy="409" r="291" fill="#FABE78"/>
<circle cx="142" cy="384" r="291" fill="#FED3A6"/>
<circle cx="119" cy="359" r="291" fill="#FDE9D1"/>
<circle cx="96" cy="334" r="291" fill="url(#paint0_linear_627_415)"/>
<rect x="36" y="253" width="183" height="183" rx="57.0645" fill="#FFD7A6"/>
<mask id="mask0_627_415" style="mask-type:alpha" maskUnits="userSpaceOnUse" x="36" y="253" width="183" height="183">
<rect x="36" y="253" width="183" height="183" rx="57.0645" fill="#FFD7A6"/>
</mask>
<g mask="url(#mask0_627_415)">
<circle cx="82.2415" cy="391.726" r="103.306" fill="url(#paint1_linear_627_415)"/>
<circle cx="82.2435" cy="391.726" r="38.371" fill="#FF2A02"/>
</g>
<path d="M198 114H-0.5V0H480.5V398L198 114Z" fill="#EC7D21"/>
<path d="M280.5 852.5L-0.5 568.5V852.5H280.5Z" fill="#EC7D21"/>
</g>
<defs>
<linearGradient id="paint0_linear_627_415" x1="213" y1="43" x2="-83" y2="43" gradientUnits="userSpaceOnUse">
<stop stop-color="white"/>
<stop offset="1" stop-color="white" stop-opacity="0"/>
</linearGradient>
<linearGradient id="paint1_linear_627_415" x1="185.548" y1="412.387" x2="92.2877" y2="299.687" gradientUnits="userSpaceOnUse">
<stop stop-color="#FE5500"/>
<stop offset="1" stop-color="#FFA15E"/>
</linearGradient>
<clipPath id="clip0_627_415">
<rect width="479" height="786" rx="8" fill="white"/>
</clipPath>
</defs>
</svg>
